<svg width="65" height="64" viewBox="0 0 65 64" fill="none" xmlns="http://www.w3.org/2000/svg">
<path d="M53.5078 51.5815V54.3588C53.5078 54.5369 53.543 54.7133 53.6114 54.8778C53.6797 55.0422 53.7799 55.1916 53.9062 55.3172C54.0324 55.4428 54.1822 55.5423 54.347 55.6098C54.5118 55.6774 54.6884 55.7117 54.8665 55.7108H60.0665C60.4251 55.7108 60.7689 55.5684 61.0225 55.3148C61.276 55.0613 61.4185 54.7174 61.4185 54.3588V49.0055C60.5602 49.8679 59.5318 50.5423 58.3988 50.9857C57.2657 51.4292 56.0528 51.6321 54.8371 51.5815H53.5078Z" fill="#FCB521"/>
<path d="M3.17578 48.9269V54.3589C3.17578 54.7175 3.31822 55.0613 3.57177 55.3149C3.82532 55.5684 4.16921 55.7109 4.52778 55.7109H9.72778C10.0864 55.7109 10.4302 55.5684 10.6838 55.3149C10.9373 55.0613 11.0798 54.7175 11.0798 54.3589V51.5815H9.83311C8.59885 51.6348 7.36732 51.4257 6.21977 50.9681C5.07223 50.5105 4.03475 49.8148 3.17578 48.9269Z" fill="#FCB521"/>
<path d="M3.21484 43.5108C3.21484 47.3428 5.88151 49.5762 9.83351 49.5762H54.8348C58.7815 49.5762 61.4535 47.3428 61.4535 43.5108V42.4042H3.21484V43.5108Z" fill="#FCB521"/>
<path d="M62.0674 18.8442L58.7341 18.2655C58.4678 18.219 58.1937 18.2638 57.9561 18.3925C57.7184 18.5213 57.5312 18.7265 57.4247 18.9749L56.3874 21.3202L55.966 20.6775L53.0434 13.7775C52.572 12.6582 51.8234 11.6772 50.8682 10.927C49.913 10.1769 48.7826 9.68217 47.5834 9.48952C42.5369 8.72332 37.4383 8.35109 32.334 8.37619C27.2301 8.35234 22.132 8.72591 17.086 9.49352C15.8857 9.68523 14.754 10.1795 13.7975 10.9297C12.8411 11.6799 12.0915 12.6614 11.6194 13.7815L8.70338 20.6709L8.28872 21.3042L7.24472 18.9682C7.13824 18.7198 6.95102 18.5146 6.71338 18.3859C6.47575 18.2571 6.20162 18.2124 5.93538 18.2589L2.60072 18.8442C2.29267 18.894 2.01245 19.0519 1.81036 19.2897C1.60827 19.5275 1.49754 19.8295 1.49805 20.1415V20.7962C1.49811 21.0966 1.60088 21.3881 1.78932 21.6221C1.97775 21.8561 2.24052 22.0187 2.53405 22.0829L7.09938 23.1269L4.91272 26.4602C3.80608 28.1479 3.2166 30.1221 3.21672 32.1402V40.4069H61.4541V32.1402C61.4537 30.1219 60.8638 28.1477 59.7567 26.4602L57.5621 23.1109L62.1354 22.0802C62.4289 22.016 62.6917 21.8534 62.8801 21.6194C63.0686 21.3854 63.1713 21.094 63.1714 20.7935V20.1389C63.1712 19.8271 63.06 19.5255 62.8577 19.2883C62.6554 19.0511 62.3752 18.8936 62.0674 18.8442ZM13.466 14.5629C13.8029 13.7539 14.3414 13.0447 15.0302 12.5029C15.719 11.9612 16.5351 11.605 17.4007 11.4682C22.3427 10.7181 27.3355 10.353 32.334 10.3762C37.3326 10.353 42.3254 10.7181 47.2674 11.4682C48.1323 11.6054 48.9477 11.9617 49.636 12.5031C50.3242 13.0446 50.8625 13.7532 51.1994 14.5615L53.4461 19.8602H11.2194L13.466 14.5629ZM9.22472 33.8962C8.83276 33.8391 8.46699 33.6655 8.17482 33.3981C7.88264 33.1306 7.67753 32.7816 7.58605 32.3962C7.46552 31.9467 7.41824 31.4807 7.44605 31.0162C7.55405 29.8162 7.93138 29.2255 8.69405 29.2255C8.69405 29.2255 13.9234 29.5509 14.63 29.7682C15.3367 29.9855 18.0487 35.1415 18.0487 35.1415L9.22472 33.8962ZM42.7234 35.8962L32.27 36.4935L21.9447 35.9109L19.3114 30.3255C19.3114 30.3255 28.5874 31.1335 32.3327 31.1335C36.078 31.1335 45.3567 30.3255 45.3567 30.3255L42.7234 35.8962ZM57.0807 32.4015C56.9892 32.7869 56.7841 33.136 56.492 33.4034C56.1998 33.6709 55.834 33.8444 55.4421 33.9015L46.6181 35.1469C46.6181 35.1469 49.3314 29.9909 50.0381 29.7735C50.7447 29.5562 55.9727 29.2309 55.9727 29.2309C56.7367 29.2309 57.1127 29.8269 57.2207 31.0215C57.2485 31.4861 57.2013 31.952 57.0807 32.4015Z" fill="#FCB521"/>
</svg>
