<svg width="65" height="64" viewBox="0 0 65 64" fill="none" xmlns="http://www.w3.org/2000/svg">
<path d="M43.4662 4C39.4734 4.00421 35.6453 5.59224 32.8219 8.41563C29.9985 11.239 28.4105 15.0671 28.4062 19.06C29.2252 39.0397 57.7041 39.0343 58.5263 19.0599C58.5203 15.0676 56.9317 11.2405 54.1087 8.41746C51.2857 5.59447 47.4586 4.00591 43.4662 4ZM45.9763 28.44C44.1547 28.3667 42.4056 27.707 40.9893 26.5592C39.573 25.4114 38.5653 23.8368 38.1163 22.07H34.8863C34.6242 22.0652 34.3746 21.9577 34.191 21.7707C34.0074 21.5836 33.9045 21.332 33.9046 21.07C33.9046 20.8079 34.0074 20.5563 34.191 20.3693C34.3746 20.1823 34.6243 20.0748 34.8863 20.07H37.7163C37.6513 19.3982 37.6513 18.7218 37.7163 18.05H34.8863C34.621 18.05 34.3667 17.9446 34.1791 17.7571C33.9916 17.5696 33.8863 17.3152 33.8863 17.05C33.8863 16.7848 33.9916 16.5304 34.1791 16.3429C34.3667 16.1554 34.621 16.05 34.8863 16.05H38.1163C38.567 14.2841 39.5752 12.7106 40.9911 11.5631C42.4071 10.4156 44.1553 9.7552 45.9763 9.68C47.4019 9.71108 48.7942 10.1176 50.0127 10.8585C51.2311 11.5994 52.2327 12.6485 52.9163 13.9C53.0463 14.1303 53.0815 14.4022 53.0143 14.6581C52.9471 14.9139 52.7827 15.1334 52.5562 15.27C52.4428 15.3368 52.3172 15.3804 52.1868 15.3984C52.0564 15.4165 51.9237 15.4085 51.7963 15.3751C51.669 15.3416 51.5496 15.2833 51.4448 15.2035C51.3401 15.1237 51.2523 15.0239 51.1863 14.91C50.6784 13.9611 49.9294 13.1629 49.0147 12.5958C48.1 12.0287 47.052 11.7128 45.9763 11.68C44.6873 11.738 43.4467 12.1872 42.4194 12.9679C41.3922 13.7486 40.6272 14.8237 40.2263 16.05H44.1663C44.429 16.0537 44.6798 16.1607 44.8643 16.3478C45.0488 16.535 45.1522 16.7872 45.1522 17.05C45.1522 17.3128 45.0488 17.565 44.8643 17.7522C44.6798 17.9393 44.429 18.0463 44.1663 18.05H39.7362C39.6429 18.7201 39.6429 19.3999 39.7362 20.07H44.1663C44.4289 20.0739 44.6795 20.181 44.8638 20.3681C45.0482 20.5552 45.1515 20.8073 45.1515 21.07C45.1515 21.3327 45.0482 21.5848 44.8638 21.7719C44.6795 21.959 44.4289 22.0661 44.1663 22.07H40.2263C42.0577 27.1754 48.4499 28.0467 51.1863 23.2098C51.2526 23.0962 51.3406 22.9968 51.4454 22.9172C51.5501 22.8377 51.6695 22.7795 51.7968 22.7461C51.924 22.7127 52.0565 22.7046 52.1869 22.7224C52.3172 22.7403 52.4428 22.7836 52.5563 22.8499C52.6699 22.9162 52.7694 23.0043 52.8489 23.109C52.9285 23.2138 52.9866 23.3332 53.0201 23.4604C53.0535 23.5876 53.0615 23.7202 53.0437 23.8505C53.0259 23.9809 52.9826 24.1064 52.9163 24.22C52.2327 25.4715 51.2311 26.5206 50.0127 27.2615C48.7942 28.0024 47.4019 28.4089 45.9763 28.44Z" fill="#FCB521"/>
<path d="M43.4666 36.1199C30.2118 36.3105 21.7959 20.9374 29.0769 9.9198L15.7466 9.91995V49.9599H13.7466V9.91995H10.4766C9.50401 9.92229 8.57189 10.3097 7.88414 10.9974C7.19639 11.6852 6.80898 12.6173 6.80664 13.5899V55.82C6.80954 56.9277 7.25087 57.9892 8.03414 58.7724C8.81742 59.5557 9.87893 59.997 10.9866 60H43.8566C44.9171 59.9985 45.9337 59.5767 46.6835 58.8268C47.4333 58.077 47.8552 57.0604 47.8566 56V35.54C46.4255 35.9271 44.9492 36.1221 43.4666 36.1199ZM45.8566 56C45.8551 56.5299 45.6439 57.0377 45.2691 57.4124C44.8944 57.7872 44.3866 57.9984 43.8566 58H10.9866C10.4089 57.9986 9.85518 57.7685 9.44664 57.3599C9.03811 56.9514 8.808 56.3977 8.80664 55.82V54.1399C8.80647 53.8536 8.86274 53.5701 8.97224 53.3055C9.08174 53.0409 9.24231 52.8005 9.44477 52.5981C9.64724 52.3956 9.88763 52.235 10.1522 52.1255C10.4168 52.0161 10.7003 51.9598 10.9866 51.9599H45.8566V56Z" fill="#FCB521"/>
</svg>
