<svg width="64" height="64" viewBox="0 0 64 64" fill="none" xmlns="http://www.w3.org/2000/svg">
<g clip-path="url(#clip0_63_2496)">
<path d="M32.0005 0C25.4082 0 19.1605 1.98906 13.8093 5.72825L9.96915 1.88597L5.17188 16.4032L19.5604 11.4826L16.5563 8.47663C21.1488 5.43365 26.4172 3.75006 32.0005 3.75006C47.5095 3.75006 60.2505 16.4911 60.2505 32.0001C60.2505 35.6475 59.562 39.3211 58.207 42.6719L61.6824 44.0781C63.2205 40.2805 64.0004 36.1328 64.0004 31.9999C64.0004 14.4237 49.5767 0 32.0005 0Z" fill="#FCB521"/>
<path d="M47.5693 55.5231C42.9768 58.5661 37.5831 60.25 32.0001 60.25C16.4911 60.25 3.75006 47.509 3.75006 32C3.75006 28.3525 4.56352 24.8039 5.91862 21.4531L2.44329 20.0469C0.905039 23.8445 0 27.8673 0 32.0001C0 49.5763 14.4237 64.0002 32.0001 64.0002C38.5924 64.0002 44.9651 62.0111 50.3164 58.2719L54.1564 62.1142L58.9538 47.7221L44.5651 52.5176L47.5693 55.5231Z" fill="#FCB521"/>
<path d="M32 54.6251C44.4265 54.6251 54.625 44.4265 54.625 32.0001C54.625 19.5737 44.4264 9.375 32 9.375C19.5736 9.375 9.5 19.5735 9.5 32.0001C9.5 44.4266 19.5734 54.6251 32 54.6251ZM17.5325 35.75H24.4999C26.5671 35.75 28.2499 37.4327 28.2499 39.5001V46.5924C23.0048 45.2286 18.8965 40.9953 17.5325 35.75ZM35.7499 46.5924V39.5001C35.7499 37.4329 37.4326 35.75 39.5 35.7489H46.5923C45.2285 40.9953 40.9952 45.2286 35.7499 46.5924ZM32 17.0001C38.9685 17.0001 44.9152 21.7991 46.5924 28.2502H17.5325C19.2098 21.799 25.0315 17.0001 32 17.0001Z" fill="#FCB521"/>
</g>
<defs>
<clipPath id="clip0_63_2496">
<rect width="64" height="64" fill="white"/>
</clipPath>
</defs>
</svg>
