<svg width="54" height="76" viewBox="0 0 54 76" fill="none" xmlns="http://www.w3.org/2000/svg">
<path d="M51.4391 74.6091C51.4391 74.2982 51.315 74.0001 51.0942 73.7803C50.8733 73.5604 50.5737 73.437 50.2613 73.437H7.85985C7.54748 73.437 7.24789 73.5604 7.02701 73.7803C6.80613 74.0001 6.68204 74.2982 6.68204 74.6091C6.68204 74.92 6.80613 75.2181 7.02701 75.4379C7.24789 75.6578 7.54748 75.7813 7.85985 75.7813H50.2613C50.5737 75.7813 50.8733 75.6578 51.0942 75.4379C51.315 75.2181 51.4391 74.92 51.4391 74.6091ZM2.61621 22.692C1.63155 23.3437 0.138077 25.327 1.55381 28.1449C2.72928 30.4821 5.18149 33.3422 7.78918 34.0971C8.41596 34.2925 9.07743 34.3526 9.72941 34.2734C10.3814 34.1942 11.0089 33.9774 11.57 33.6376C14.1588 32.095 17.2164 30.0086 18.512 29.1131C20.1469 29.9359 22.2104 30.107 24.3069 29.5702L24.3352 29.5608C24.2127 33.4313 22.8959 35.8483 16.4579 41.7981C10.7196 47.0986 7.3157 54.0612 7.34868 60.426C7.37224 64.6012 8.90105 68.1857 11.7773 70.7855C11.9941 70.9829 12.2773 71.0924 12.5711 71.0926H45.55C45.8624 71.0926 46.162 70.9691 46.3829 70.7493C46.6038 70.5295 46.7279 70.2314 46.7279 69.9205C46.7279 69.6096 46.6038 69.3115 46.3829 69.0916C46.162 68.8718 45.8624 68.7483 45.55 68.7483H13.0399C10.8751 66.6267 9.72552 63.7549 9.70667 60.4143C9.67605 54.7833 12.8797 48.3059 18.0621 43.5165C24.9288 37.1728 26.7049 34.1674 26.7049 28.895C26.7049 28.7989 26.672 28.7145 26.6508 28.6254C27.9393 27.9339 29.0535 27.0196 29.8144 25.9131C30.7684 24.5299 32.8225 20.9783 31.2984 17.8346C31.231 17.696 31.1368 17.5721 31.0212 17.4698C30.9057 17.3675 30.771 17.2888 30.6248 17.2383C30.4787 17.1878 30.324 17.1664 30.1696 17.1754C30.0152 17.1844 29.8641 17.2236 29.7249 17.2907C29.5857 17.3578 29.4611 17.4515 29.3583 17.5666C29.2555 17.6816 29.1765 17.8156 29.1257 17.9611C29.075 18.1065 29.0535 18.2604 29.0625 18.4141C29.0716 18.5678 29.1109 18.7182 29.1784 18.8567C29.8639 20.2703 29.3762 22.413 27.8733 24.5885C27.0065 25.8451 25.4565 26.8602 23.7251 27.3009C21.9654 27.7487 20.2929 27.5517 19.1269 26.757C18.9285 26.6218 18.6933 26.5502 18.4529 26.5518C18.2124 26.5535 17.9782 26.6284 17.7818 26.7664C17.7394 26.7945 13.5958 29.6991 10.3639 31.6285C10.0804 31.8016 9.76235 31.9109 9.43197 31.949C9.10159 31.9871 8.76685 31.9529 8.45112 31.8489C6.62786 31.3191 4.62321 29.0076 3.66447 27.0993C2.88946 25.5567 3.68331 24.8206 4.04372 24.5581C12.1636 17.579 16.2389 10.3281 16.4061 10.021C16.4843 9.87931 16.5322 9.72309 16.5468 9.56212C16.5613 9.40114 16.5423 9.23891 16.4909 9.0856C15.9832 7.52025 15.5586 5.92939 15.2189 4.31962C17.6829 5.79654 21.9206 7.85953 26.3328 7.85953C32.4668 7.85953 46.7279 10.1382 46.7279 31.2464C46.7279 31.3612 46.7067 42.8367 42.0873 55.4561C42.0325 55.6012 42.0073 55.7557 42.013 55.9106C42.0187 56.0655 42.0552 56.2177 42.1204 56.3585C42.1856 56.4993 42.2782 56.6258 42.3929 56.7307C42.5075 56.8356 42.6419 56.9168 42.7884 56.9697C42.9348 57.0226 43.0903 57.046 43.2459 57.0386C43.4014 57.0313 43.554 56.9933 43.6947 56.9269C43.8355 56.8605 43.9616 56.7669 44.0657 56.6517C44.1699 56.5364 44.25 56.4018 44.3016 56.2555C49.0623 43.2493 49.0858 31.7199 49.0835 31.2393C49.0835 7.36722 31.6683 5.51287 26.3328 5.51287C20.4225 5.51287 14.5263 1.05165 14.4698 1.00476C14.2937 0.873661 14.0848 0.793183 13.8659 0.772101C13.647 0.751018 13.4264 0.79014 13.2283 0.885203C13.0313 0.981842 12.8653 1.13141 12.7492 1.317C12.633 1.50259 12.5714 1.71681 12.5711 1.93545C12.5711 4.23522 13.6665 7.95565 14.0929 9.313C13.1082 10.9493 9.22612 17.0047 2.61621 22.692Z" fill="#794911"/>
<path d="M40.8036 4.37367C37.0323 1.84416 32.8157 0.763428 26.7052 0.763428C26.3928 0.763428 26.0932 0.886922 25.8723 1.10674C25.6514 1.32657 25.5273 1.62471 25.5273 1.93558C25.5273 2.24646 25.6514 2.5446 25.8723 2.76442C26.0932 2.98424 26.3928 3.10774 26.7052 3.10774C32.3116 3.10774 36.1348 4.06656 39.4892 6.3171C44.9401 9.97892 51.4393 17.2744 51.4393 31.2395C51.4393 34.6411 51.4393 39.2992 49.119 48.5381C49.0515 48.8369 49.1041 49.15 49.2655 49.4106C49.427 49.6712 49.6845 49.8587 49.983 49.9328C50.2815 50.0069 50.5973 49.9618 50.8629 49.8072C51.1284 49.6526 51.3226 49.4007 51.404 49.1055C53.795 39.5899 53.795 34.763 53.795 31.2395C53.795 16.2453 46.7304 8.35196 40.8036 4.37367Z" fill="#794911"/>
</svg>
