<svg width="101" height="73" viewBox="0 0 101 73" fill="none" xmlns="http://www.w3.org/2000/svg">
<path fill-rule="evenodd" clip-rule="evenodd" d="M18.3148 0.692028C17.0799 0.138528 15.6751 0.0968376 14.4094 0.576127C13.1437 1.05542 12.1208 2.01643 11.5655 3.24781L0.52273 27.7008C-0.0329574 28.931 -0.0762394 30.3308 0.402393 31.5928C0.881025 32.8548 1.84242 33.8758 3.07539 34.4313L10.6823 37.8475C11.2934 38.1227 11.9529 38.2752 12.6231 38.2961C13.2933 38.3171 13.961 38.2063 14.5882 37.9699C15.2154 37.7335 15.7898 37.3762 16.2786 36.9185C16.7673 36.4607 17.1608 35.9114 17.4367 35.3019L28.4795 10.8439C29.0352 9.61366 29.0785 8.21381 28.5998 6.95181C28.1212 5.68981 27.1598 4.66888 25.9268 4.11331L18.3148 0.692028ZM9.26305 30.8726C9.67939 31.0598 10.1286 31.1634 10.5851 31.1775C11.0416 31.1915 11.4964 31.1158 11.9235 30.9546C12.3507 30.7934 12.7418 30.5498 13.0746 30.2379C13.4073 29.926 13.6752 29.5517 13.8629 29.1365C14.0507 28.7213 14.1545 28.2733 14.1687 27.8181C14.1828 27.3629 14.1068 26.9093 13.9452 26.4834C13.7835 26.0574 13.5393 25.6674 13.2265 25.3355C12.9137 25.0037 12.5384 24.7365 12.122 24.5493C11.2812 24.1713 10.3242 24.1418 9.46152 24.4674C8.59888 24.7929 7.90125 25.4469 7.52213 26.2854C7.14301 27.124 7.11343 28.0783 7.43992 28.9386C7.7664 29.7988 8.4222 30.4945 9.26305 30.8726ZM96.7785 35.0983C97.4054 34.861 97.9793 34.5029 98.4674 34.0444C98.9555 33.5859 99.3483 33.036 99.6233 32.4261C99.8982 31.8163 100.05 31.1583 100.07 30.4899C100.09 29.8215 99.9777 29.1558 99.7396 28.5307L90.2182 3.46163C89.9807 2.836 89.622 2.26317 89.1624 1.77586C88.7029 1.28856 88.1516 0.89635 87.5399 0.621644C86.9283 0.346938 86.2684 0.195124 85.5979 0.174879C84.9274 0.154633 84.2595 0.266354 83.6323 0.503654L75.8365 3.45145C75.2096 3.68873 74.6357 4.04684 74.1476 4.50533C73.6594 4.96383 73.2667 5.51372 72.9917 6.1236C72.7167 6.73348 72.5649 7.39141 72.545 8.0598C72.525 8.7282 72.6373 9.39397 72.8754 10.0191L82.4019 35.0932C82.8815 36.3555 83.8441 37.3762 85.0782 37.9309C86.3122 38.4856 87.7167 38.5289 88.9827 38.0512L96.7785 35.0983ZM81.7842 7.37676C81.3571 7.53822 80.9661 7.78199 80.6335 8.09414C80.3009 8.4063 80.0332 8.78072 79.8457 9.19604C79.6582 9.61136 79.5546 10.0594 79.5407 10.5147C79.5269 10.97 79.6031 11.4235 79.765 11.8494C79.9269 12.2753 80.1714 12.6652 80.4844 12.9969C80.7974 13.3285 81.1729 13.5955 81.5894 13.7825C82.0058 13.9694 82.4552 14.0728 82.9117 14.0866C83.3682 14.1004 83.823 14.0244 84.2501 13.8629C85.1126 13.5368 85.8098 12.8824 86.1885 12.0437C86.5672 11.2049 86.5962 10.2504 86.2692 9.39033C85.9422 8.53021 85.286 7.83485 84.4449 7.45723C83.6038 7.07962 82.6467 7.05067 81.7842 7.37676Z" fill="#794911"/>
<path fill-rule="evenodd" clip-rule="evenodd" d="M75.6935 8.92412H75.7344C76.0686 8.89504 76.3938 8.80059 76.6914 8.64618C76.989 8.49177 77.2532 8.28041 77.4689 8.02417C77.6846 7.76793 77.8476 7.47184 77.9486 7.15279C78.0495 6.83374 78.0865 6.49799 78.0573 6.1647C78.0281 5.83141 77.9334 5.50711 77.7786 5.21032C77.6238 4.91353 77.4118 4.65006 77.1549 4.43496C76.8979 4.21985 76.601 4.05732 76.2811 3.95665C75.9611 3.85597 75.6244 3.81912 75.2902 3.84821H75.2494L75.1166 3.86348L74.6214 3.91439L72.8192 4.08749C71.303 4.24023 69.2047 4.47951 66.8869 4.78499C62.3176 5.38575 56.6558 6.30216 52.9493 7.53423C51.1523 8.1299 49.2531 9.2856 47.4356 10.6093C45.5926 11.9534 43.6832 13.5877 41.8555 15.283C38.6116 18.3341 35.5127 21.5349 32.5689 24.8748C30.4297 27.288 29.9345 31.137 32.4463 33.8659C34.08 35.6274 36.6327 37.8574 39.941 38.8552C43.3973 39.8887 47.3794 39.4865 51.4484 36.4725L56.5486 33.1887L56.6405 33.1327C57.3705 33.5757 58.3865 34.3393 59.6016 35.3525C60.9289 36.4624 62.3686 37.7708 63.7113 39.0283C65.2353 40.4607 66.7331 41.9204 68.204 43.4067L68.4848 43.6969L68.5563 43.7682L68.5818 43.7937L68.883 44.0991L69.2659 44.2977C71.3234 45.3159 73.585 44.9494 75.3413 44.3588C77.169 43.7479 78.9865 42.7093 80.5334 41.6859C82.4703 40.3862 84.305 38.9413 86.0216 37.3635L86.1135 37.282L86.139 37.2566L86.1441 37.2515C86.1441 37.2515 85.6949 35.6732 83.9386 33.8302L82.5551 35.5612L81.386 38.9265L68.5818 43.7937L71.1753 41.4721L69.8071 37.8217C68.9513 36.9812 68.0867 36.1496 67.2136 35.327C65.8352 34.0339 64.3138 32.6542 62.8741 31.4577C61.4803 30.2868 60.0304 29.1769 58.8204 28.515C56.8089 27.4153 54.8383 28.2299 53.7764 28.9172L48.5281 32.2978L48.4566 32.3487C45.6232 34.4666 43.2952 34.5481 41.4113 33.983C39.3692 33.372 37.5568 31.8854 36.2039 30.4191C35.7801 29.9609 35.6576 29.0801 36.3928 28.2503C39.2266 25.0329 42.2097 21.9494 45.3322 19.0098C47.0731 17.3959 48.8191 15.9041 50.4477 14.7179C52.112 13.5062 53.5109 12.7171 54.5677 12.3658C57.7534 11.3068 62.966 10.4362 67.5557 9.83035C70.0655 9.50147 72.5812 9.21801 75.1013 8.98013L75.5761 8.93431L75.6935 8.92412Z" fill="#794911"/>
<path d="M71.8239 39.8279C71.1571 39.1539 70.4848 38.4853 69.8073 37.822L71.1755 41.4724L68.582 43.799L81.3862 38.9268L82.5553 35.5666L83.9388 33.8356L82.637 33.5607L82.6217 33.5709L82.5502 33.637L82.2745 33.8916C80.8379 35.1843 79.3109 36.3735 77.7052 37.4503C76.3268 38.3668 74.9331 39.1304 73.7078 39.5377C72.7582 39.8585 72.166 39.8839 71.8239 39.8279Z" fill="#794911"/>
<path fill-rule="evenodd" clip-rule="evenodd" d="M25.4686 13.8171L24.4628 11.4752L23.4571 9.13322L23.6613 9.05176L24.2382 8.80738C27.0687 7.6089 29.9108 6.43787 32.7641 5.29446C35.0815 4.36199 37.4168 3.47426 39.7686 2.63177C40.805 2.2652 41.7699 1.94955 42.5765 1.72044C43.2708 1.5168 44.1592 1.29279 44.8841 1.29279C45.5478 1.29279 46.2472 1.44552 46.8241 1.59826C47.447 1.76627 48.1311 1.99028 48.8254 2.24484C50.2243 2.75396 51.8018 3.41581 53.262 4.0573C54.965 4.81625 56.6534 5.60722 58.3264 6.4298L58.6634 6.59271L58.7553 6.63853L58.7859 6.65381C59.3918 6.95559 59.8527 7.48505 60.0672 8.12571C60.2817 8.76637 60.2321 9.46575 59.9295 10.07C59.6269 10.6742 59.096 11.1339 58.4535 11.3477C57.8111 11.5616 57.1098 11.5122 56.5038 11.2104L56.4783 11.1951L56.3966 11.1544L56.0801 11.0017C54.4622 10.2083 52.8299 9.44454 51.1841 8.71065C49.8367 8.10526 48.4694 7.54491 47.0845 7.03056C46.5658 6.83962 46.0395 6.66978 45.507 6.52144C45.3073 6.46504 45.1045 6.42084 44.8994 6.38907L44.8535 6.39925C44.7514 6.41452 44.4808 6.47053 43.9754 6.61308C43.1304 6.86223 42.2928 7.13557 41.4636 7.43276C39.4827 8.13025 37.0474 9.07212 34.6633 10.0242C31.8418 11.1511 29.032 12.3068 26.2344 13.4913L25.6677 13.7306L25.4686 13.8171ZM22.1144 12.4781C21.8487 11.8576 21.8408 11.1573 22.0926 10.5311C22.3444 9.90486 22.8351 9.4039 23.4571 9.13831L24.4628 11.4803L25.4686 13.8171C25.1602 13.9491 24.8288 14.0192 24.4932 14.0233C24.1577 14.0274 23.8246 13.9655 23.5131 13.8412C23.2015 13.7168 22.9176 13.5324 22.6776 13.2985C22.4376 13.0646 22.2462 12.7859 22.1144 12.4781ZM12.3989 32.6392C12.6292 32.3961 12.9052 32.2007 13.2113 32.064C13.5173 31.9273 13.8473 31.852 14.1825 31.8426C14.5177 31.8331 14.8515 31.8896 15.1648 32.0089C15.4781 32.1281 15.7647 32.3077 16.0084 32.5374L14.2522 34.3855L12.5011 36.2387C12.2573 36.0091 12.0612 35.7338 11.9242 35.4286C11.7871 35.1235 11.7117 34.7943 11.7022 34.4601C11.6927 34.1258 11.7494 33.793 11.8689 33.4805C11.9885 33.1681 12.1686 32.8822 12.3989 32.6392ZM35.7303 49.8831L49.8363 55.1576C51.2129 55.672 52.7089 55.7803 54.1456 55.4698C55.5823 55.1592 56.899 54.4428 57.9384 53.4062L68.6086 42.7656C69.0879 42.2883 69.7377 42.0204 70.4151 42.0209C71.0925 42.0214 71.7419 42.2902 72.2206 42.7682C72.6992 43.2462 72.9679 43.8942 72.9674 44.5697C72.9669 45.2452 72.6974 45.8929 72.218 46.3702L61.5479 57.0108C59.8147 58.7373 57.6199 59.93 55.2254 60.4464C52.8309 60.9628 50.338 60.7811 48.0443 59.9229L33.6473 54.5415L33.5299 54.4855C32.7493 54.0553 32.0079 53.5578 31.3142 52.9989C30.4871 52.3625 29.5171 51.5734 28.4705 50.6824C26.1272 48.6844 23.8159 46.6494 21.5375 44.5781C18.7535 42.0563 15.9914 39.5106 13.2515 36.9413L12.6951 36.422L12.5011 36.2387L14.2522 34.3855L16.0084 32.5374L16.1973 32.7156L16.7436 33.2298C19.4624 35.7777 22.2023 38.303 24.9631 40.8055C27.3116 42.9285 29.7366 45.0821 31.7685 46.8029C32.7896 47.6633 33.6933 48.3965 34.4233 48.9616C35.0972 49.4758 35.521 49.7609 35.7303 49.878M18.4385 60.7579C18.8725 60.2418 19.4939 59.9183 20.1666 59.8582C20.8393 59.798 21.5085 60.0062 22.0276 60.4371L26.9236 64.5101C28.0208 65.4236 29.3524 66.0126 30.7679 66.2105L37.0781 67.0964C37.4176 67.1335 37.7461 67.2382 38.0443 67.4043C38.3424 67.5703 38.6042 67.7943 38.814 68.063C39.0238 68.3317 39.1774 68.6397 39.2657 68.9687C39.354 69.2977 39.3751 69.641 39.328 69.9783C39.2809 70.3156 39.1663 70.64 38.9912 70.9324C38.816 71.2247 38.5838 71.4791 38.3083 71.6803C38.0329 71.8816 37.7197 72.0257 37.3873 72.1041C37.055 72.1825 36.7103 72.1936 36.3735 72.1367L30.0583 71.2559C27.699 70.9255 25.4795 69.9432 23.6511 68.4201L18.7551 64.3472C18.4973 64.1327 18.2845 63.8697 18.1289 63.5732C17.9732 63.2767 17.8777 62.9524 17.8478 62.619C17.8179 62.2857 17.8543 61.9497 17.9548 61.6303C18.0552 61.3109 18.2179 61.0145 18.4334 60.7579" fill="#794911"/>
</svg>
