<svg width="113" height="113" viewBox="0 0 113 113" fill="none" xmlns="http://www.w3.org/2000/svg">
<path d="M93.3457 90.6299V95.4903C93.3457 95.802 93.4073 96.1106 93.5269 96.3984C93.6465 96.6862 93.8219 96.9476 94.0428 97.1674C94.2637 97.3873 94.5259 97.5613 94.8144 97.6795C95.1028 97.7978 95.4117 97.8578 95.7234 97.8563H104.823C105.451 97.8563 106.053 97.607 106.496 97.1633C106.94 96.7196 107.189 96.1178 107.189 95.4903V86.1219C105.687 87.6311 103.888 88.8113 101.905 89.5874C99.9221 90.3635 97.7995 90.7185 95.672 90.6299H93.3457Z" fill="#794911"/>
<path d="M5.26367 85.9843V95.4903C5.26367 96.1178 5.51295 96.7196 5.95666 97.1633C6.40037 97.607 7.00217 97.8563 7.62967 97.8563H16.7297C17.3572 97.8563 17.959 97.607 18.4027 97.1633C18.8464 96.7196 19.0957 96.1178 19.0957 95.4903V90.6299H16.914C14.754 90.7231 12.5989 90.3572 10.5907 89.5564C8.58245 88.7556 6.76687 87.5381 5.26367 85.9843Z" fill="#794911"/>
<path d="M5.33203 76.5062C5.33203 83.2122 9.9987 87.1206 16.9147 87.1206H95.667C102.574 87.1206 107.25 83.2122 107.25 76.5062V74.5696H5.33203V76.5062Z" fill="#794911"/>
<path d="M108.323 33.3396L102.489 32.3269C102.023 32.2456 101.544 32.3239 101.128 32.5492C100.712 32.7745 100.384 33.1335 100.198 33.5682L98.3825 37.6726L97.6452 36.5479L92.5305 24.4729C91.7056 22.514 90.3956 20.7974 88.724 19.4846C87.0524 18.1718 85.0741 17.306 82.9755 16.9689C74.1441 15.6281 65.2217 14.9766 56.2892 15.0206C47.3572 14.9788 38.4356 15.6326 29.6052 16.9759C27.5046 17.3114 25.524 18.1764 23.8502 19.4893C22.1765 20.8021 20.8647 22.5197 20.0385 24.4799L14.9355 36.5362L14.2098 37.6446L12.3828 33.5566C12.1965 33.1219 11.8689 32.7628 11.453 32.5375C11.0372 32.3122 10.5574 32.2339 10.0915 32.3152L4.25584 33.3396C3.71675 33.4267 3.22637 33.7031 2.87271 34.1192C2.51906 34.5353 2.32528 35.0638 2.32617 35.6099V36.7556C2.32628 37.2814 2.50613 37.7913 2.83589 38.2009C3.16565 38.6104 3.6255 38.895 4.13917 39.0072L12.1285 40.8342L8.30184 46.6676C6.36523 49.621 5.33364 53.0758 5.33384 56.6076V71.0742H107.249V56.6076C107.249 53.0756 106.216 49.6208 104.279 46.6676L100.438 40.8062L108.442 39.0026C108.955 38.8903 109.415 38.6058 109.745 38.1962C110.075 37.7867 110.254 37.2767 110.255 36.7509V35.6052C110.254 35.0596 110.06 34.5319 109.706 34.1168C109.352 33.7016 108.861 33.4261 108.323 33.3396ZM23.2702 25.8472C23.8597 24.4315 24.8021 23.1905 26.0075 22.2424C27.2129 21.2943 28.6411 20.6709 30.1558 20.4316C38.8043 19.1189 47.5417 18.48 56.2892 18.5206C65.0366 18.48 73.774 19.1189 82.4225 20.4316C83.9361 20.6716 85.3631 21.2951 86.5675 22.2427C87.772 23.1903 88.7139 24.4304 89.3035 25.8449L93.2352 35.1176H19.3385L23.2702 25.8472ZM15.8478 59.6806C15.1619 59.5806 14.5218 59.2769 14.0105 58.8089C13.4992 58.3408 13.1403 57.73 12.9802 57.0556C12.7692 56.269 12.6865 55.4535 12.7352 54.6406C12.9242 52.5406 13.5845 51.5069 14.9192 51.5069C14.9192 51.5069 24.0705 52.0762 25.3072 52.4566C26.5438 52.8369 31.2898 61.8599 31.2898 61.8599L15.8478 59.6806ZM74.4705 63.1806L56.1772 64.2259L38.1078 63.2062L33.4995 53.4319C33.4995 53.4319 49.7325 54.8459 56.2868 54.8459C62.8412 54.8459 79.0788 53.4319 79.0788 53.4319L74.4705 63.1806ZM99.5958 57.0649C99.4358 57.7393 99.0768 58.3502 98.5655 58.8182C98.0542 59.2862 97.4141 59.5899 96.7282 59.6899L81.2862 61.8692C81.2862 61.8692 86.0345 52.8462 87.2712 52.4659C88.5078 52.0856 97.6568 51.5162 97.6568 51.5162C98.9938 51.5162 99.6518 52.5592 99.8408 54.6499C99.8895 55.4628 99.8068 56.2783 99.5958 57.0649Z" fill="#794911"/>
</svg>
