<svg width="65" height="75" viewBox="0 0 65 75" fill="none" xmlns="http://www.w3.org/2000/svg">
<path d="M58.5845 24.5394C58.9682 24.3725 59.3193 24.1388 59.6214 23.8493L61.3909 22.0798C61.7194 21.7513 61.9801 21.3612 62.1579 20.9319C62.3357 20.5026 62.4272 20.0425 62.4272 19.5778C62.4272 19.1132 62.3357 18.653 62.1579 18.2237C61.9801 17.7944 61.7194 17.4044 61.3909 17.0758C61.0623 16.7472 60.6722 16.4866 60.2429 16.3088C59.8136 16.131 59.3535 16.0394 58.8889 16.0394C58.4242 16.0394 57.9641 16.131 57.5348 16.3088C57.1055 16.4866 56.7154 16.7472 56.3868 17.0758L54.6174 18.8453L54.2104 19.4575C49.1843 14.6863 42.7349 11.6909 35.8469 10.9287L35.8858 10.7305V7.19159H39.4248C41.3712 7.19159 42.9637 5.59907 42.9637 3.65266C42.9637 1.70626 41.3712 0.113739 39.4248 0.113739H25.2691C23.3227 0.113739 21.7301 1.70626 21.7301 3.65266C21.7301 5.59907 23.3227 7.19159 25.2691 7.19159H28.808V10.7305L28.8505 10.9322C20.7719 11.8455 13.3485 15.8136 8.101 22.0233C2.85354 28.233 0.179352 36.2144 0.626338 44.3321C1.07332 52.4498 4.60764 60.0892 10.5052 65.6853C16.4027 71.2814 24.2169 74.4103 32.3469 74.4312C38.1493 74.4293 43.8409 72.8424 48.8072 69.8419C53.7735 66.8413 57.8258 62.5411 60.5265 57.4056C63.2272 52.2701 64.4738 46.4944 64.1315 40.7021C63.7893 34.9099 61.8712 29.3211 58.5845 24.5394ZM32.3469 67.3533C18.6902 67.3533 7.57444 56.2411 7.57444 42.5808C7.57444 28.9206 18.6902 17.8084 32.3469 17.8084C46.0036 17.8084 57.1194 28.9206 57.1194 42.5808C57.1194 56.2411 46.0036 67.3533 32.3469 67.3533ZM35.8858 39.0419V31.9641C35.8858 30.0177 34.2933 28.4251 32.3469 28.4251C30.4005 28.4251 28.808 30.0177 28.808 31.9641V42.5808C28.808 44.5272 30.4005 46.1198 32.3469 46.1198H42.9637C44.9101 46.1198 46.5026 44.5272 46.5026 42.5808C46.5026 40.6344 44.9101 39.0419 42.9637 39.0419H35.8858ZM32.3469 21.3473C20.626 21.3473 11.1134 30.8599 11.1134 42.5808C11.1134 54.3018 20.626 63.8144 32.3469 63.8144C44.0678 63.8144 53.5805 54.3018 53.5805 42.5808C53.5805 30.8599 44.0678 21.3473 32.3469 21.3473ZM32.3469 60.2755C22.5901 60.2755 14.6523 52.3377 14.6523 42.5808C14.6523 32.824 22.5901 24.8862 32.3469 24.8862C42.1037 24.8862 50.0415 32.824 50.0415 42.5808C50.0415 52.3377 42.1037 60.2755 32.3469 60.2755Z" fill="#794911"/>
</svg>
