<svg width="155" height="155" viewBox="0 0 155 155" fill="none" xmlns="http://www.w3.org/2000/svg">
<g clip-path="url(#clip0_266_1863)">
<path d="M105.247 98.6016H69.0989C69.9112 96.3641 70.3362 94.0039 70.355 91.6234V84.6451H87.8008C89.6518 84.6451 91.4267 83.9099 92.7354 82.6012C94.0441 81.2925 94.7793 79.5175 94.7793 77.6665C94.7793 75.8159 94.0441 74.0409 92.7354 72.7322C91.4267 71.4235 89.6518 70.6883 87.8008 70.6883H70.355V63.7101C70.3396 60.7189 71.3103 57.806 73.1168 55.4218C74.9232 53.0375 77.4649 51.3152 80.3486 50.5206C83.2322 49.7264 86.2975 49.9043 89.0699 51.0271C91.8424 52.1496 94.1677 54.1546 95.6864 56.7315C96.6119 58.3416 98.139 59.5184 99.9317 60.0027C101.725 60.4867 103.637 60.2389 105.247 59.3137C106.857 58.3882 108.033 56.8611 108.518 55.0681C109.002 53.2754 108.754 51.3634 107.829 49.7532C104.63 44.7362 99.9119 40.8724 94.363 38.726C88.8137 36.5792 82.7238 36.2617 76.9815 37.8203C71.2393 39.3785 66.1452 42.7308 62.4422 47.3881C58.7396 52.0454 56.6219 57.7642 56.3982 63.7101V70.6883H49.4199C47.5693 70.6883 45.7943 71.4235 44.4856 72.7322C43.1769 74.0409 42.4417 75.8159 42.4417 77.6665C42.4417 79.5175 43.1769 81.2925 44.4856 82.6012C45.7943 83.9099 47.5693 84.6451 49.4199 84.6451H56.3982V91.6234C56.3982 93.474 55.6629 95.249 54.3542 96.5577C53.0456 97.8664 51.2706 98.6016 49.4199 98.6016C47.5693 98.6016 45.7943 99.3368 44.4856 100.646C43.1769 101.954 42.4417 103.729 42.4417 105.58C42.4417 107.431 43.1769 109.206 44.4856 110.514C45.7943 111.823 47.5693 112.558 49.4199 112.558H105.247C107.098 112.558 108.872 111.823 110.181 110.514C111.49 109.206 112.225 107.431 112.225 105.58C112.225 103.729 111.49 101.954 110.181 100.646C108.872 99.3368 107.098 98.6016 105.247 98.6016ZM77.3332 0.904785C62.1511 0.904785 47.31 5.40679 34.6867 13.8415C22.0633 22.2762 12.2245 34.2646 6.4146 48.2911C0.604674 62.3176 -0.915479 77.752 2.04641 92.6423C5.00827 107.533 12.3192 121.21 23.0545 131.946C33.79 142.681 47.4674 149.992 62.3578 152.954C77.2482 155.915 92.6825 154.395 106.709 148.585C120.735 142.776 132.724 132.937 141.158 120.313C149.593 107.69 154.095 92.8486 154.095 77.6665C154.095 57.3083 146.008 37.7834 131.612 23.3878C117.217 8.99218 97.6918 0.904785 77.3332 0.904785ZM77.3332 140.472C64.9115 140.472 52.7689 136.788 42.4407 129.887C32.1125 122.986 24.0625 113.177 19.3089 101.701C14.5553 90.2249 13.3116 77.5969 15.7349 65.414C18.1583 53.2311 24.1399 42.0401 32.9234 33.2568C41.7068 24.4732 52.8975 18.4916 65.0807 16.0683C77.2636 13.6449 89.8916 14.8887 101.368 19.6423C112.844 24.3958 122.653 32.4458 129.554 42.774C136.455 53.1022 140.138 65.2449 140.138 77.6665C140.138 94.3235 133.522 110.298 121.743 122.077C109.965 133.855 93.9902 140.472 77.3332 140.472Z" fill="#794911"/>
</g>
<defs>
<clipPath id="clip0_266_1863">
<rect width="153.524" height="153.524" fill="white" transform="translate(0.571411 0.904785)"/>
</clipPath>
</defs>
</svg>
