<svg width="65" height="64" viewBox="0 0 65 64" fill="none" xmlns="http://www.w3.org/2000/svg">
<path d="M45.5409 30.0157C45.2736 29.5328 44.6652 29.358 44.1818 29.6251C43.6986 29.8927 43.5238 30.5015 43.7914 30.9845L61.7914 63.4845C61.974 63.814 62.3151 64.0001 62.6672 64.0001C62.831 64.0001 62.9972 63.96 63.1508 63.8751C63.6339 63.607 63.8085 62.9986 63.5409 62.5157L45.5409 30.0157Z" fill="#FCB521"/>
<path d="M21.54 30.9864C21.8085 30.504 21.6352 29.8951 21.1525 29.6265C20.6703 29.3575 20.0612 29.5313 19.7924 30.0137C17.6103 33.9346 15.3861 38.004 13.235 41.9395C9.52456 48.7286 5.68766 55.7486 1.79946 62.5011C1.52406 62.9796 1.68861 63.5909 2.16716 63.8668C2.32436 63.9571 2.49601 64.0001 2.66516 64.0001C3.01111 64.0001 3.34781 63.8204 3.53286 63.4991C7.43201 56.7276 11.2743 49.6973 14.9901 42.8985C17.1393 38.9664 19.3615 34.9005 21.54 30.9864Z" fill="#FCB521"/>
<path d="M33.166 54.0044C33.166 53.728 32.9421 53.5044 32.666 53.5044C32.3899 53.5044 32.166 53.728 32.166 54.0044V58.0053C32.166 58.2817 32.3899 58.5053 32.666 58.5053C32.9421 58.5053 33.166 58.2817 33.166 58.0053V54.0044Z" fill="#FCB521"/>
<path d="M32.666 61.5059C32.3899 61.5059 32.166 61.7295 32.166 62.0059V63C32.166 63.2764 32.3899 63.5 32.666 63.5C32.9421 63.5 33.166 63.2764 33.166 63V62.0059C33.166 61.7295 32.9421 61.5059 32.666 61.5059Z" fill="#FCB521"/>
<path d="M33.166 46.002C33.166 45.7256 32.9421 45.502 32.666 45.502C32.3899 45.502 32.166 45.7256 32.166 46.002V50.003C32.166 50.2793 32.3899 50.503 32.666 50.503C32.9421 50.503 33.166 50.2793 33.166 50.003V46.002Z" fill="#FCB521"/>
<path d="M33.166 38.001C33.166 37.7246 32.9421 37.501 32.666 37.501C32.3899 37.501 32.166 37.7246 32.166 38.001V42.0014C32.166 42.2778 32.3899 42.5014 32.666 42.5014C32.9421 42.5014 33.166 42.2778 33.166 42.0014V38.001Z" fill="#FCB521"/>
<path d="M33.166 30C33.166 29.7237 32.9421 29.5 32.666 29.5C32.3899 29.5 32.166 29.7237 32.166 30V34.001C32.166 34.2774 32.3899 34.501 32.666 34.501C32.9421 34.501 33.166 34.2774 33.166 34.001V30Z" fill="#FCB521"/>
<path d="M23.291 27.5C23.0149 27.5 22.791 27.7236 22.791 28C22.791 28.2764 23.0149 28.5 23.291 28.5H42.041C42.3171 28.5 42.541 28.2764 42.541 28C42.541 27.7236 42.3171 27.5 42.041 27.5H34.666V24H38.666V19.9512C39.4487 19.7627 40.2185 19.0196 40.4905 18.1275L40.5684 17.8725C40.8836 16.8384 40.4109 16 39.5127 16H38.666V13.9511C39.4487 13.7627 40.2185 13.0196 40.4905 12.1274L40.5684 11.8726C40.8836 10.8384 40.4109 10 39.5127 10H38.666V7.95115C39.4487 7.7627 40.2185 7.01955 40.4905 6.12745L40.5684 5.87255C40.8836 4.8384 40.4109 4 39.5127 4H38.666V3.9468C38.666 1.7671 36.8753 0 34.666 0H30.666C28.4568 0 26.666 1.7671 26.666 3.9468V4H25.8193C24.9212 4 24.4485 4.8384 24.7637 5.87255L24.8416 6.12745C25.1135 7.01955 25.8833 7.7627 26.666 7.95115V10H25.8193C24.9212 10 24.4485 10.8384 24.7637 11.8726L24.8416 12.1274C25.1135 13.0196 25.8833 13.7627 26.666 13.9511V16H25.8193C24.9212 16 24.4485 16.8384 24.7637 17.8725L24.8416 18.1275C25.1135 19.0196 25.8833 19.7627 26.666 19.9512V24H30.666V27.5H23.291ZM38.666 5H39.5127C39.5684 5 39.603 5.0088 39.6162 5.02685C39.6565 5.08105 39.7075 5.2671 39.6121 5.58055L39.5339 5.83595C39.3887 6.312 39.0161 6.7075 38.666 6.89015V5ZM38.666 11H39.5127C39.5684 11 39.603 11.0088 39.6162 11.0268C39.6565 11.081 39.7075 11.2671 39.6121 11.5806L39.5339 11.8359C39.3887 12.312 39.0161 12.7075 38.666 12.8902V11ZM38.666 17H39.5127C39.5684 17 39.603 17.0088 39.6162 17.0268C39.6565 17.0811 39.7075 17.2671 39.6121 17.5805L39.5339 17.836C39.3887 18.312 39.0161 18.7075 38.666 18.8902V17ZM26.666 18.8902C26.3159 18.7075 25.9434 18.3115 25.7979 17.8349L25.7202 17.5811C25.6245 17.2671 25.6755 17.0811 25.7158 17.0268C25.729 17.0088 25.7637 17 25.8193 17H26.666V18.8902ZM26.666 12.8902C26.3159 12.7075 25.9434 12.3115 25.7979 11.835L25.7202 11.581C25.6245 11.2671 25.6755 11.081 25.7158 11.0268C25.729 11.0088 25.7637 11 25.8193 11H26.666V12.8902ZM26.666 6.89015C26.3159 6.7075 25.9434 6.3115 25.7979 5.83495L25.7202 5.58105C25.6245 5.2671 25.6755 5.08105 25.7158 5.02685C25.729 5.0088 25.7637 5 25.8193 5H26.666V6.89015ZM33.666 27.5H31.666V24H33.666V27.5ZM28.666 22V4V3.9468C28.666 2.87355 29.5632 2 30.666 2H34.666C35.7688 2 36.666 2.87355 36.666 3.9468V22H28.666Z" fill="#FCB521"/>
<path d="M32.666 8C33.7706 8 34.666 7.10457 34.666 6C34.666 4.89543 33.7706 4 32.666 4C31.5614 4 30.666 4.89543 30.666 6C30.666 7.10457 31.5614 8 32.666 8Z" fill="#FCB521"/>
<path d="M32.666 14C33.7706 14 34.666 13.1046 34.666 12C34.666 10.8954 33.7706 10 32.666 10C31.5614 10 30.666 10.8954 30.666 12C30.666 13.1046 31.5614 14 32.666 14Z" fill="#FCB521"/>
<path d="M32.666 20C33.7706 20 34.666 19.1046 34.666 18C34.666 16.8954 33.7706 16 32.666 16C31.5614 16 30.666 16.8954 30.666 18C30.666 19.1046 31.5614 20 32.666 20Z" fill="#FCB521"/>
<path d="M50.8479 52H51.166C51.4421 52 51.666 51.7763 51.666 51.5C51.666 51.2237 51.4421 51 51.166 51H50.3316L49.4998 49.3886C49.2476 48.8999 48.5911 48.5 48.041 48.5H41.291C40.741 48.5 40.0842 48.8999 39.8316 49.3882L38.9981 51H38.166C37.8899 51 37.666 51.2237 37.666 51.5C37.666 51.7763 37.8899 52 38.166 52H38.481L37.6255 53.6543C37.3728 54.1426 37.166 54.9927 37.166 55.5425V58.5V60C37.166 60.5522 37.6138 61 38.166 61H39.166C39.7183 61 40.166 60.5522 40.166 60V59.5H49.166V60C49.166 60.5522 49.6138 61 50.166 61H51.166C51.7183 61 52.166 60.5522 52.166 60V58.5V55.5532C52.166 55.0034 51.9595 54.1533 51.7073 53.6646L50.8479 52ZM40.7197 49.8476C40.8003 49.6919 41.1155 49.5 41.291 49.5H48.041C48.2163 49.5 48.5308 49.6914 48.6111 49.8476L49.7656 52.0835H39.5635L40.7197 49.8476ZM39.166 60H38.166V59.5H39.166V60ZM40.666 57.2295C40.3897 57.2295 40.166 57.0059 40.166 56.7295C40.166 56.4532 40.3897 56.2295 40.666 56.2295C40.9424 56.2295 41.166 56.4532 41.166 56.7295C41.166 57.0059 40.9424 57.2295 40.666 57.2295ZM45.666 57.0835H43.666C43.3899 57.0835 43.166 56.8599 43.166 56.5835C43.166 56.3072 43.3899 56.0835 43.666 56.0835H45.666C45.9421 56.0835 46.166 56.3072 46.166 56.5835C46.166 56.8599 45.9421 57.0835 45.666 57.0835ZM48.666 57.2295C48.3897 57.2295 48.166 57.0059 48.166 56.7295C48.166 56.4532 48.3897 56.2295 48.666 56.2295C48.9424 56.2295 49.166 56.4532 49.166 56.7295C49.166 57.0059 48.9424 57.2295 48.666 57.2295ZM38.5725 54L39.0464 53.0835H50.2817L50.7551 54H38.5725ZM51.166 60H50.166V59.5H51.166V60Z" fill="#FCB521"/>
<path d="M16.666 59.5H25.666V60C25.666 60.5522 26.1138 61 26.666 61H27.666C28.2183 61 28.666 60.5522 28.666 60V58.5V55.5425C28.666 54.9927 28.4592 54.1426 28.2066 53.6543L27.3511 52H27.666C27.9421 52 28.166 51.7763 28.166 51.5C28.166 51.2237 27.9421 51 27.666 51H26.834L26.0005 49.3882C25.7478 48.8999 25.0911 48.5 24.541 48.5H17.791C17.241 48.5 16.5845 48.8999 16.3323 49.3886L15.5005 51H14.666C14.3899 51 14.166 51.2237 14.166 51.5C14.166 51.7763 14.3899 52 14.666 52H14.9841L14.1248 53.6646C13.8726 54.1533 13.666 55.0034 13.666 55.5532V58.5V60C13.666 60.5522 14.1138 61 14.666 61H15.666C16.2183 61 16.666 60.5522 16.666 60V59.5ZM17.166 57.2295C16.8897 57.2295 16.666 57.0059 16.666 56.7295C16.666 56.4532 16.8897 56.2295 17.166 56.2295C17.4424 56.2295 17.666 56.4532 17.666 56.7295C17.666 57.0059 17.4424 57.2295 17.166 57.2295ZM22.166 57.0835H20.166C19.8899 57.0835 19.666 56.8599 19.666 56.5835C19.666 56.3072 19.8899 56.0835 20.166 56.0835H22.166C22.4421 56.0835 22.666 56.3072 22.666 56.5835C22.666 56.8599 22.4421 57.0835 22.166 57.0835ZM25.166 57.2295C24.8897 57.2295 24.666 57.0059 24.666 56.7295C24.666 56.4532 24.8897 56.2295 25.166 56.2295C25.4424 56.2295 25.666 56.4532 25.666 56.7295C25.666 57.0059 25.4424 57.2295 25.166 57.2295ZM27.666 59.5V60H26.666V59.5H27.666ZM17.221 49.8471C17.3013 49.6914 17.6157 49.5 17.791 49.5H24.541C24.7166 49.5 25.0317 49.6919 25.1123 49.8476L26.2686 52.0835H16.0664L17.221 49.8471ZM15.666 60H14.666V59.5H15.666V60ZM15.0769 54L15.5501 53.0835H26.7857L27.2595 54H15.0769Z" fill="#FCB521"/>
<path d="M45.9993 38.1601C45.9993 37.8838 45.7754 37.6601 45.4993 37.6601H44.8762L44.5139 36.9024C44.2766 36.4063 43.6326 36 43.0825 36H39.2495C38.6995 36 38.0552 36.4058 37.8176 36.9019L37.4546 37.6601H36.8328C36.5567 37.6601 36.3328 37.8838 36.3328 38.1601C36.3328 38.4365 36.5567 38.6601 36.8328 38.6601H36.971C36.937 38.709 36.9131 38.7622 36.8982 38.8218L36.5979 39.4487C36.3604 39.9448 36.166 40.8008 36.166 41.3506V42.9199C36.166 42.9204 36.1663 42.9214 36.1663 42.9219L36.166 44.2798C36.166 44.6772 36.4644 45 36.8328 45H37.4993C37.8677 45 38.166 44.6772 38.166 44.2798V43.9199H44.1629L44.166 44.2798C44.166 44.6772 44.4644 45 44.8328 45H45.4993C45.8677 45 46.166 44.6772 46.166 44.2798L46.1553 43.0263C46.1592 42.9907 46.166 42.9566 46.166 42.9199V41.3584C46.166 40.8086 45.9719 39.9521 45.7346 39.4561L45.4358 38.8306C45.4214 38.7681 45.3967 38.7114 45.3611 38.6601H45.4993C45.7754 38.6601 45.9993 38.4365 45.9993 38.1601ZM38.7195 37.334C38.7913 37.1841 39.0835 37 39.2495 37H43.0825C43.2483 37 43.5403 37.1841 43.6118 37.3335L44.1406 38.4399H38.19L38.7195 37.334ZM38.4993 42.2851C38.3152 42.2851 38.166 42.124 38.166 41.9253C38.166 41.7266 38.3152 41.5649 38.4993 41.5649C38.6836 41.5649 38.8328 41.7266 38.8328 41.9253C38.8328 42.124 38.6836 42.2851 38.4993 42.2851ZM41.8328 42.3203H40.4993C40.2232 42.3203 39.9993 42.0967 39.9993 41.8203C39.9993 41.5439 40.2232 41.3203 40.4993 41.3203H41.8328C42.1089 41.3203 42.3328 41.5439 42.3328 41.8203C42.3328 42.0967 42.1089 42.3203 41.8328 42.3203ZM43.8328 42.2851C43.6484 42.2851 43.4993 42.124 43.4993 41.9253C43.4993 41.7266 43.6484 41.5649 43.8328 41.5649C44.0169 41.5649 44.166 41.7266 44.166 41.9253C44.166 42.124 44.0169 42.2851 43.8328 42.2851ZM37.5291 39.8198L37.7109 39.4399H44.6187L44.8001 39.8198H37.5291Z" fill="#FCB521"/>
<path d="M21.3181 36.9024L20.9558 37.6601H20.3328C20.0567 37.6601 19.8328 37.8838 19.8328 38.1601C19.8328 38.4365 20.0567 38.6601 20.3328 38.6601H20.471C20.4353 38.7114 20.4107 38.7681 20.3962 38.8306L20.0974 39.4561C19.8601 39.9521 19.666 40.8086 19.666 41.3584V42.9199C19.666 42.9566 19.6729 42.9907 19.6768 43.0263L19.666 44.2798C19.666 44.6772 19.9644 45 20.3328 45H20.9993C21.3677 45 21.666 44.6772 21.666 44.2798L21.6692 43.9199H27.666V44.2798C27.666 44.6772 27.9644 45 28.3328 45H28.9993C29.3677 45 29.666 44.6772 29.666 44.2798V42.9219C29.666 42.9214 29.666 42.9204 29.666 42.9199V41.3506C29.666 40.8008 29.4717 39.9448 29.2341 39.4487L28.9338 38.8218C28.919 38.7622 28.895 38.709 28.8611 38.6601H28.9993C29.2754 38.6601 29.4993 38.4365 29.4993 38.1601C29.4993 37.8838 29.2754 37.6601 28.9993 37.6601H28.3775L28.0144 36.9019C27.7769 36.4058 27.1326 36 26.5825 36H22.7495C22.1995 36 21.5554 36.4062 21.3181 36.9024ZM21.9993 42.2851C21.8152 42.2851 21.666 42.124 21.666 41.9253C21.666 41.7266 21.8152 41.5649 21.9993 41.5649C22.1836 41.5649 22.3328 41.7266 22.3328 41.9253C22.3328 42.124 22.1836 42.2851 21.9993 42.2851ZM25.3328 42.3203H23.9993C23.7232 42.3203 23.4993 42.0967 23.4993 41.8203C23.4993 41.5439 23.7232 41.3203 23.9993 41.3203H25.3328C25.6089 41.3203 25.8328 41.5439 25.8328 41.8203C25.8328 42.0967 25.6089 42.3203 25.3328 42.3203ZM27.3328 42.2851C27.1484 42.2851 26.9993 42.124 26.9993 41.9253C26.9993 41.7266 27.1484 41.5649 27.3328 41.5649C27.5169 41.5649 27.666 41.7266 27.666 41.9253C27.666 42.124 27.5169 42.2851 27.3328 42.2851ZM28.1211 39.4399L28.303 39.8198H21.0317L21.2134 39.4399H28.1211ZM27.1126 37.334L27.6421 38.4399H21.6914L22.2202 37.334C22.2918 37.1841 22.5837 37 22.7495 37H26.5825C26.7485 37 27.0408 37.1841 27.1126 37.334Z" fill="#FCB521"/>
</svg>
