<svg width="64" height="64" viewBox="0 0 64 64" fill="none" xmlns="http://www.w3.org/2000/svg">
<path fill-rule="evenodd" clip-rule="evenodd" d="M48.6917 39.0964H56.4544V60.199H48.6917V39.0964ZM19.3339 60.199H27.0973V51.3952H19.3339V60.199ZM4.6543 60.199H12.4178V55.7703H4.6543V60.199ZM59.2098 14.4669C58.8319 13.5499 57.7703 13.1065 56.8525 13.4835C56.1709 13.7636 50.5741 16.1093 50.3396 15.9137C49.0383 14.8314 46.8892 12.875 45.2488 12.4943C43.1793 12.0133 37.0538 15.2914 35.8074 16.7789C34.9818 17.7634 30.9594 22.3821 30.7403 23.0269C30.4473 23.8891 30.8512 24.8384 31.6718 25.2308C32.6 25.6748 33.4477 25.081 34.0644 24.4037C35.5563 22.6824 37.1522 20.9404 38.5713 19.1701C38.6379 19.0863 39.5555 18.5018 39.688 18.5018C39.8347 18.5018 39.9469 18.6379 39.9148 18.7833C39.0822 22.5473 39.209 26.3444 39.0712 30.1666C39.0384 31.075 39.0073 31.9893 38.8918 32.8916C38.821 33.4628 35.5909 40.58 35.0915 41.7395C34.6973 42.6543 35.1253 43.726 36.0407 44.1184C36.9445 44.506 38.0067 44.0909 38.4075 43.1948L42.8764 34.1933L42.8899 34.1549C43.243 33.1532 42.9532 31.6539 43.2837 30.6763C43.3187 30.5728 43.3934 30.5188 43.5034 30.5195C45.6667 30.5343 47.8378 30.6176 49.9895 30.8475C50.3223 30.883 51.4929 34.4457 51.6853 34.9522C52.0387 35.8816 53.0828 36.358 54.0147 36.0068C54.9478 35.6551 55.4229 34.6066 55.0684 33.6739C54.6125 32.4748 53.5597 27.7155 51.7169 27.4279C49.9979 27.1599 48.243 27.0504 46.5063 26.9778C46.382 26.9725 46.2838 26.8704 46.2838 26.7459C46.2838 24.1763 46.3784 20.9394 47.328 18.513C47.3553 18.4438 47.4147 18.392 47.4867 18.3731C47.7069 18.3161 48.7349 19.2833 48.9573 19.4674C49.4763 19.8973 50.1893 20.0006 50.8046 19.7445C53.2748 18.7766 55.7759 17.8356 58.2272 16.8246C59.1499 16.4438 59.59 15.3906 59.2098 14.4669ZM34.0127 60.199H41.7755V47.0875H34.0127V60.199ZM46.4963 10.3078C48.2906 10.3078 49.75 8.8494 49.75 7.05478C49.75 5.26053 48.2907 3.80103 46.4963 3.80103C44.7018 3.80103 43.2437 5.26078 43.2442 7.05478C43.2442 8.84828 44.7027 10.3078 46.4963 10.3078ZM22.4465 35.3721C22.5215 35.4464 22.5365 35.5609 22.4842 35.6523C18.6422 42.3358 11.4414 45.9499 4.89542 49.4818C13.8457 48.1037 20.0105 46.9985 26.1227 39.3618C26.1635 39.3105 26.2243 39.2789 26.2899 39.2752C26.5082 39.2621 28.2623 41.1144 28.5447 41.393L29.9729 31.3978L20.0428 32.9987L22.4465 35.3721Z" fill="#FCB521"/>
</svg>
