<svg width="148" height="149" viewBox="0 0 148 149" fill="none" xmlns="http://www.w3.org/2000/svg">
<g clip-path="url(#clip0_577_2532)">
<path d="M62.4375 59.4688H26.5938C25.9804 59.4688 25.3922 59.7124 24.9586 60.1461C24.5249 60.5797 24.2812 61.1679 24.2812 61.7812C24.2812 62.3946 24.5249 62.9828 24.9586 63.4164C25.3922 63.8501 25.9804 64.0938 26.5938 64.0938H62.4375C63.0508 64.0938 63.639 63.8501 64.0727 63.4164C64.5064 62.9828 64.75 62.3946 64.75 61.7812C64.75 61.1679 64.5064 60.5797 64.0727 60.1461C63.639 59.7124 63.0508 59.4688 62.4375 59.4688Z" fill="#794911"/>
<path d="M62.4375 68.7188H26.5938C25.9804 68.7188 25.3922 68.9624 24.9586 69.3961C24.5249 69.8297 24.2812 70.4179 24.2812 71.0312C24.2812 71.6446 24.5249 72.2328 24.9586 72.6664C25.3922 73.1001 25.9804 73.3438 26.5938 73.3438H62.4375C63.0508 73.3438 63.639 73.1001 64.0727 72.6664C64.5064 72.2328 64.75 71.6446 64.75 71.0312C64.75 70.4179 64.5064 69.8297 64.0727 69.3961C63.639 68.9624 63.0508 68.7188 62.4375 68.7188Z" fill="#794911"/>
<path d="M62.4375 77.9688H26.5938C25.9804 77.9688 25.3922 78.2124 24.9586 78.6461C24.5249 79.0797 24.2812 79.6679 24.2812 80.2812C24.2812 80.8946 24.5249 81.4828 24.9586 81.9164C25.3922 82.3501 25.9804 82.5938 26.5938 82.5938H62.4375C63.0508 82.5938 63.639 82.3501 64.0727 81.9164C64.5064 81.4828 64.75 80.8946 64.75 80.2812C64.75 79.6679 64.5064 79.0797 64.0727 78.6461C63.639 78.2124 63.0508 77.9688 62.4375 77.9688Z" fill="#794911"/>
<path d="M62.4375 87.2188H26.5938C25.9804 87.2188 25.3922 87.4624 24.9586 87.8961C24.5249 88.3297 24.2812 88.9179 24.2812 89.5312C24.2812 90.1446 24.5249 90.7328 24.9586 91.1664C25.3922 91.6001 25.9804 91.8438 26.5938 91.8438H62.4375C63.0508 91.8438 63.639 91.6001 64.0727 91.1664C64.5064 90.7328 64.75 90.1446 64.75 89.5312C64.75 88.9179 64.5064 88.3297 64.0727 87.8961C63.639 87.4624 63.0508 87.2188 62.4375 87.2188Z" fill="#794911"/>
<path d="M62.4375 96.4688H26.5938C25.9804 96.4688 25.3922 96.7124 24.9586 97.1461C24.5249 97.5797 24.2812 98.1679 24.2812 98.7812C24.2812 99.3946 24.5249 99.9828 24.9586 100.416C25.3922 100.85 25.9804 101.094 26.5938 101.094H62.4375C63.0508 101.094 63.639 100.85 64.0727 100.416C64.5064 99.9828 64.75 99.3946 64.75 98.7812C64.75 98.1679 64.5064 97.5797 64.0727 97.1461C63.639 96.7124 63.0508 96.4688 62.4375 96.4688Z" fill="#794911"/>
<path d="M121.406 59.4688H85.5625C84.9492 59.4688 84.361 59.7124 83.9273 60.1461C83.4936 60.5797 83.25 61.1679 83.25 61.7812C83.25 62.3946 83.4936 62.9828 83.9273 63.4164C84.361 63.8501 84.9492 64.0938 85.5625 64.0938H121.406C122.02 64.0938 122.608 63.8501 123.041 63.4164C123.475 62.9828 123.719 62.3946 123.719 61.7812C123.719 61.1679 123.475 60.5797 123.041 60.1461C122.608 59.7124 122.02 59.4688 121.406 59.4688Z" fill="#794911"/>
<path d="M121.406 68.7188H85.5625C84.9492 68.7188 84.361 68.9624 83.9273 69.3961C83.4936 69.8297 83.25 70.4179 83.25 71.0312C83.25 71.6446 83.4936 72.2328 83.9273 72.6664C84.361 73.1001 84.9492 73.3438 85.5625 73.3438H121.406C122.02 73.3438 122.608 73.1001 123.041 72.6664C123.475 72.2328 123.719 71.6446 123.719 71.0312C123.719 70.4179 123.475 69.8297 123.041 69.3961C122.608 68.9624 122.02 68.7188 121.406 68.7188Z" fill="#794911"/>
<path d="M115.172 107.433C114.296 107.38 113.417 107.472 112.57 107.705C112.29 106.181 111.49 104.801 110.305 103.802C109.121 102.802 107.626 102.245 106.077 102.225H106.025C105.335 102.22 104.647 102.287 103.971 102.426C103.944 100.676 103.244 99.0039 102.016 97.7569C100.788 96.5098 99.1278 95.7834 97.3788 95.7286C96.4505 95.7237 95.5276 95.8699 94.6463 96.1616L94.6982 88.2835C94.723 86.3756 93.9929 84.5353 92.6669 83.1634C92.1476 82.6251 91.5265 82.1953 90.8397 81.899C90.153 81.6028 89.4142 81.4459 88.6663 81.4375C84.0695 81.4375 81.6836 83.9143 81.5741 88.8504V115.463C79.7686 113.182 77.5306 111.246 75.051 111.038C73.8223 111.001 72.6067 111.3 71.5358 111.904C70.4649 112.507 69.5794 113.392 68.975 114.462C67.3174 117.64 68.389 122.325 72.1468 128.363L82.1849 144.915C82.7725 145.996 83.6399 146.899 84.6963 147.53C85.7528 148.161 86.9594 148.496 88.1898 148.5H111.664C113.307 148.481 114.89 147.881 116.133 146.806C117.376 145.731 118.199 144.251 118.454 142.627L120.783 133.967C120.805 133.882 120.823 133.795 120.837 133.708C121.176 131.435 121.384 115.961 121.407 114.179C121.436 112.469 120.804 110.813 119.642 109.556C118.481 108.3 116.88 107.539 115.172 107.433ZM116.277 132.912L113.896 141.834C113.822 142.382 113.558 142.886 113.15 143.259C112.742 143.632 112.216 143.85 111.664 143.875H88.1898C87.784 143.87 87.3872 143.755 87.0416 143.542C86.696 143.329 86.4146 143.027 86.2273 142.667C86.2081 142.632 76.0875 125.942 76.0875 125.942C72.0057 119.382 72.8627 117.011 73.0761 116.602C73.2515 116.343 73.4793 116.124 73.7449 115.959C74.0104 115.794 74.3077 115.687 74.6174 115.645C74.6332 115.645 74.649 115.646 74.6648 115.647C76.5889 115.808 79.8882 120.562 81.7637 124.901C81.9745 125.389 82.3473 125.79 82.8192 126.036C83.2911 126.281 83.8333 126.357 84.3543 126.249C84.8754 126.142 85.3433 125.858 85.6794 125.445C86.0154 125.033 86.199 124.517 86.1991 123.985L86.1979 88.9024C86.2623 86.0625 87.0651 86.0625 88.6671 86.0625C89.6452 86.0637 90.0782 87.4961 90.0732 88.2576L89.9784 124.092C89.9784 124.706 90.222 125.294 90.6557 125.727C91.0894 126.161 91.6776 126.405 92.2909 126.405C92.9042 126.405 93.4924 126.161 93.9261 125.727C94.3598 125.294 94.6034 124.706 94.6034 124.092C94.6034 124.092 94.6029 102.716 94.6034 102.6C94.6322 102.271 94.7262 101.952 94.88 101.66C95.0338 101.369 95.2442 101.111 95.4988 100.902C95.7535 100.693 96.0474 100.536 96.3633 100.442C96.6791 100.348 97.0105 100.318 97.3382 100.354C97.9104 100.4 98.4417 100.668 98.8178 101.102C99.1939 101.536 99.3847 102.1 99.3492 102.673L99.33 123.987C99.33 124.601 99.5736 125.189 100.007 125.622C100.441 126.056 101.029 126.3 101.643 126.3C102.256 126.3 102.844 126.056 103.278 125.622C103.711 125.189 103.955 124.601 103.955 123.987C103.955 123.987 103.955 107.898 103.958 107.866C103.963 106.835 105.334 106.847 106.057 106.85C106.609 106.871 107.13 107.109 107.507 107.514C107.883 107.918 108.084 108.454 108.066 109.006V123.987C108.065 124.601 108.307 125.189 108.74 125.624C109.172 126.059 109.76 126.304 110.373 126.305C110.986 126.307 111.575 126.065 112.01 125.632C112.445 125.199 112.69 124.612 112.691 123.999L112.74 114.148C112.698 113.853 112.728 113.553 112.826 113.272C112.923 112.992 113.087 112.738 113.302 112.533C113.518 112.328 113.779 112.178 114.064 112.094C114.35 112.011 114.651 111.996 114.943 112.053C115.461 112.094 115.943 112.335 116.286 112.726C116.629 113.116 116.807 113.625 116.782 114.144C116.701 120.513 116.493 131.061 116.277 132.912Z" fill="#794911"/>
<path d="M72.937 53.6875H75.063C76.1287 53.6869 77.1753 53.4047 78.0967 52.8693C79.0181 52.334 79.7817 51.5647 80.3101 50.6392C81.2296 51.1776 82.2753 51.4628 83.3408 51.4658C84.4063 51.4688 85.4536 51.1895 86.3761 50.6562L88.2175 49.5931C88.906 49.1981 89.5094 48.6704 89.9927 48.0406C90.476 47.4108 90.8295 46.6915 91.0329 45.9241C91.1724 45.4051 91.2425 44.87 91.2413 44.3326H91.2653C92.3258 44.331 93.3674 44.0511 94.2858 43.5209C95.2043 42.9907 95.9676 42.2287 96.4994 41.3112L97.5625 39.4701C98.0946 38.5471 98.3734 37.4999 98.3706 36.4345C98.3679 35.3691 98.0837 34.3233 97.5468 33.4031C98.4719 32.8746 99.2408 32.111 99.7759 31.1897C100.311 30.2685 100.593 29.2222 100.594 28.1568V26.0307C100.593 24.9653 100.311 23.919 99.7759 22.9977C99.2408 22.0765 98.4718 21.3129 97.5467 20.7844C98.0836 19.8642 98.3678 18.8184 98.3706 17.753C98.3733 16.6876 98.0945 15.6404 97.5624 14.7174L96.4994 12.8763C95.9676 11.9587 95.2043 11.1968 94.2858 10.6666C93.3674 10.1364 92.3259 9.85653 91.2654 9.85487H91.2412C91.2425 9.31748 91.1724 8.7823 91.0328 8.26334C90.8294 7.49599 90.4759 6.77659 89.9926 6.1468C89.5094 5.517 88.906 4.98932 88.2174 4.59428L86.3763 3.53134C85.4538 2.99803 84.4064 2.71865 83.3409 2.72162C82.2753 2.7246 81.2296 3.00983 80.31 3.54828C79.7817 2.62284 79.0181 1.85349 78.0967 1.31817C77.1752 0.782859 76.1287 0.500603 75.063 0.5L72.937 0.5C71.8713 0.500597 70.8248 0.78285 69.9033 1.31816C68.9819 1.85348 68.2183 2.62283 67.6899 3.54828C66.7704 3.00984 65.7247 2.72461 64.6592 2.72162C63.5937 2.71864 62.5464 2.998 61.6239 3.53127L59.7825 4.59436C59.094 4.98937 58.4906 5.51704 58.0073 6.14682C57.524 6.7766 57.1705 7.49599 56.9671 8.26333C56.8276 8.78229 56.7575 9.31747 56.7587 9.85486H56.735C55.6744 9.85641 54.6328 10.1363 53.7143 10.6665C52.7957 11.1967 52.0324 11.9586 51.5006 12.8763L50.4375 14.7174C49.9054 15.6404 49.6266 16.6876 49.6294 17.753C49.6321 18.8184 49.9163 19.8642 50.4532 20.7844C49.5281 21.3129 48.7592 22.0765 48.2241 22.9977C47.689 23.919 47.4069 24.9653 47.4062 26.0307V28.1568C47.4069 29.2222 47.689 30.2685 48.2241 31.1898C48.7592 32.111 49.5282 32.8746 50.4533 33.4031C49.9164 34.3233 49.6322 35.3691 49.6294 36.4344C49.6267 37.4998 49.9055 38.547 50.4376 39.47L51.5006 41.3112C52.0324 42.2288 52.7957 42.9907 53.7142 43.5209C54.6327 44.0511 55.6742 44.331 56.7347 44.3326L56.7588 44.3326C56.7575 44.87 56.8276 45.4051 56.9672 45.9241C57.1705 46.6915 57.5241 47.4108 58.0073 48.0406C58.4906 48.6704 59.094 49.1981 59.7826 49.5931L61.6238 50.6561C62.5463 51.1894 63.5936 51.4688 64.6592 51.4658C65.7247 51.4628 66.7705 51.1776 67.69 50.6392C68.2183 51.5646 68.9819 52.334 69.9033 52.8693C70.8248 53.4046 71.8713 53.6869 72.937 53.6875ZM66.8645 44.4135L65.8723 46.1319C65.681 46.4538 65.3715 46.6882 65.0098 46.7852C64.6481 46.8821 64.2629 46.8338 63.9362 46.6507L62.095 45.5878C61.9338 45.4947 61.7925 45.3708 61.6792 45.2231C61.5659 45.0755 61.4828 44.9069 61.4346 44.7271C61.3865 44.5473 61.3742 44.3598 61.3985 44.1753C61.4228 43.9908 61.4832 43.8128 61.5762 43.6516L62.5711 41.9285C62.6628 41.7674 62.6945 41.5791 62.6607 41.3968C62.6269 41.2146 62.5297 41.0502 62.3863 40.9327C61.5816 40.2567 60.837 39.5122 60.161 38.7075C60.042 38.5662 59.8777 38.4706 59.6961 38.4369C59.5146 38.4032 59.3269 38.4335 59.1652 38.5227L57.4421 39.5175C57.1157 39.702 56.73 39.751 56.3679 39.654C56.0059 39.5569 55.6963 39.3216 55.506 38.9987L54.443 37.1575C54.255 36.832 54.2041 36.4451 54.3014 36.082C54.3987 35.7189 54.6362 35.4093 54.9618 35.2214L56.6802 34.2293C56.8402 34.1357 56.962 33.9884 57.0238 33.8135C57.0857 33.6387 57.0837 33.4476 57.0181 33.2741C56.6587 32.2865 56.3869 31.2692 56.2057 30.2339C56.176 30.0507 56.0823 29.8839 55.9414 29.7632C55.8004 29.6424 55.6213 29.5754 55.4357 29.5741H53.4486C53.2625 29.5741 53.0782 29.5375 52.9062 29.4662C52.7343 29.395 52.578 29.2906 52.4464 29.159C52.3148 29.0274 52.2104 28.8711 52.1391 28.6992C52.0679 28.5272 52.0313 28.3429 52.0312 28.1568V26.0307C52.0313 25.8446 52.0679 25.6603 52.1391 25.4883C52.2104 25.3164 52.3148 25.1601 52.4464 25.0285C52.578 24.8969 52.7343 24.7925 52.9062 24.7213C53.0782 24.6501 53.2625 24.6134 53.4486 24.6134H55.4356C55.6213 24.6121 55.8004 24.5451 55.9414 24.4244C56.0823 24.3036 56.176 24.1368 56.2057 23.9536C56.3869 22.9183 56.6587 21.901 57.0181 20.9134C57.0836 20.7399 57.0857 20.5488 57.0238 20.374C56.962 20.1991 56.8402 20.0518 56.6802 19.9582L54.9617 18.9661C54.6362 18.7781 54.3987 18.4686 54.3014 18.1055C54.2041 17.7424 54.255 17.3555 54.443 17.03L55.506 15.1888C55.7015 14.8715 56.011 14.641 56.3709 14.5446C56.7309 14.4481 57.1142 14.493 57.4421 14.67L59.1651 15.6648C59.3269 15.754 59.5145 15.7844 59.6961 15.7507C59.8777 15.717 60.042 15.6213 60.161 15.48C60.837 14.6753 61.5816 13.9308 62.3862 13.2548C62.5296 13.1373 62.6268 12.9729 62.6607 12.7906C62.6945 12.6084 62.6628 12.42 62.5711 12.2589L61.5762 10.5359C61.4832 10.3747 61.4228 10.1967 61.3985 10.0122C61.3742 9.82767 61.3865 9.64016 61.4346 9.46038C61.4828 9.28059 61.5659 9.11206 61.6792 8.9644C61.7925 8.81674 61.9338 8.69284 62.095 8.59979L63.9362 7.53676C64.2636 7.35716 64.6477 7.31085 65.0084 7.4075C65.3691 7.50415 65.6786 7.7363 65.8723 8.05554L66.8644 9.77395C66.9608 9.93119 67.1083 10.0506 67.2822 10.1121C67.456 10.1736 67.6458 10.1735 67.8196 10.1119C68.8072 9.7525 69.8245 9.48065 70.8598 9.29943C71.043 9.26972 71.2098 9.17608 71.3306 9.03512C71.4514 8.89417 71.5183 8.71499 71.5196 8.52937V6.5423C71.5196 6.35617 71.5563 6.17187 71.6275 5.99991C71.6987 5.82795 71.8031 5.67171 71.9348 5.5401C72.0664 5.40849 72.2226 5.30409 72.3946 5.23287C72.5665 5.16165 72.7509 5.12499 72.937 5.125H75.063C75.4389 5.125 75.7994 5.27432 76.0652 5.54012C76.331 5.80591 76.4803 6.16641 76.4803 6.5423V8.52931C76.4816 8.71494 76.5486 8.89411 76.6694 9.03506C76.7902 9.17602 76.9569 9.26966 77.1402 9.29937C78.1754 9.48059 79.1927 9.75243 80.1803 10.1118C80.354 10.1745 80.5441 10.1751 80.7183 10.1135C80.8924 10.0519 81.0399 9.93191 81.1355 9.7739L82.1277 8.05548C82.3198 7.73445 82.6293 7.50077 82.9907 7.40394C83.352 7.30712 83.7369 7.35473 84.0638 7.53671L85.905 8.59973C86.0662 8.69279 86.2075 8.81668 86.3208 8.96434C86.4341 9.112 86.5172 9.28054 86.5654 9.46032C86.6135 9.6401 86.6258 9.82761 86.6015 10.0121C86.5772 10.1967 86.5168 10.3746 86.4238 10.5358L85.4289 12.2589C85.3372 12.42 85.3055 12.6083 85.3393 12.7906C85.3731 12.9728 85.4704 13.1372 85.6137 13.2547C86.4184 13.9307 87.1629 14.6752 87.8389 15.4798C87.958 15.621 88.1223 15.7165 88.3038 15.7502C88.4854 15.784 88.673 15.7537 88.8348 15.6648L90.5579 14.67C90.8842 14.4853 91.2699 14.4363 91.6321 14.5333C91.9942 14.6303 92.3037 14.8657 92.494 15.1887L93.557 17.0299C93.745 17.3554 93.7959 17.7423 93.6986 18.1054C93.6013 18.4685 93.3638 18.7781 93.0382 18.966L91.3198 19.9581C91.1598 20.0518 91.038 20.1991 90.9762 20.3739C90.9143 20.5487 90.9163 20.7398 90.9819 20.9133C91.3413 21.9009 91.6131 22.9183 91.7943 23.9535C91.824 24.1367 91.9176 24.3035 92.0586 24.4243C92.1996 24.5451 92.3787 24.6121 92.5643 24.6134H94.5514C94.7375 24.6134 94.9218 24.65 95.0938 24.7212C95.2657 24.7925 95.422 24.8969 95.5536 25.0285C95.6852 25.1601 95.7896 25.3163 95.8609 25.4883C95.9321 25.6603 95.9688 25.8446 95.9688 26.0307V28.1568C95.9687 28.5327 95.8194 28.8932 95.5536 29.159C95.2878 29.4248 94.9273 29.5741 94.5514 29.5741H92.5644C92.3787 29.5754 92.1996 29.6424 92.0586 29.7631C91.9177 29.8839 91.8241 30.0506 91.7943 30.2339C91.6131 31.2691 91.3413 32.2864 90.9819 33.2741C90.9164 33.4476 90.9143 33.6387 90.9762 33.8135C91.038 33.9883 91.1598 34.1356 91.3198 34.2293L93.0383 35.2213C93.3638 35.4093 93.6013 35.7189 93.6986 36.082C93.7959 36.4451 93.745 36.8319 93.557 37.1575L92.494 38.9986C92.3022 39.3199 91.9926 39.5538 91.6312 39.6507C91.2697 39.7476 90.8847 39.6997 90.5579 39.5174L88.8349 38.5226C88.6727 38.4352 88.4855 38.4059 88.3044 38.4395C88.1232 38.4731 87.959 38.5677 87.839 38.7075C87.163 39.5121 86.4185 40.2567 85.6138 40.9327C85.4704 41.0501 85.3732 41.2146 85.3393 41.3968C85.3055 41.5791 85.3372 41.7674 85.4289 41.9285L86.4238 43.6516C86.5168 43.8128 86.5773 43.9907 86.6015 44.1753C86.6258 44.3598 86.6136 44.5473 86.5654 44.7271C86.5172 44.9069 86.4341 45.0754 86.3208 45.2231C86.2075 45.3708 86.0662 45.4947 85.905 45.5877L84.0638 46.6507C83.7369 46.8327 83.352 46.8803 82.9907 46.7835C82.6293 46.6866 82.3198 46.453 82.1277 46.1319L81.1356 44.4135C81.0398 44.2555 80.8924 44.1356 80.7183 44.074C80.5442 44.0124 80.3541 44.013 80.1804 44.0756C79.1927 44.435 78.1754 44.7068 77.1402 44.888C76.957 44.9177 76.7902 45.0114 76.6694 45.1523C76.5486 45.2933 76.4817 45.4724 76.4804 45.6581V47.6451C76.4804 47.8312 76.4437 48.0155 76.3725 48.1875C76.3013 48.3595 76.1969 48.5157 76.0653 48.6474C75.9336 48.779 75.7774 48.8834 75.6054 48.9546C75.4335 49.0258 75.2492 49.0625 75.063 49.0625H72.937C72.7509 49.0625 72.5665 49.0258 72.3946 48.9546C72.2226 48.8834 72.0664 48.779 71.9348 48.6474C71.8032 48.5157 71.6988 48.3595 71.6275 48.1875C71.5563 48.0156 71.5197 47.8313 71.5197 47.6451V45.6581C71.5184 45.4725 71.4514 45.2933 71.3306 45.1524C71.2099 45.0114 71.0431 44.9178 70.8598 44.888C69.8246 44.7069 68.8074 44.4351 67.8198 44.0757C67.6469 44.0045 67.4538 43.9996 67.2776 44.0619C67.1013 44.1243 66.9542 44.2495 66.8645 44.4135Z" fill="#794911"/>
<path d="M84.4063 27.0938C84.4063 25.0356 83.7959 23.0237 82.6525 21.3124C81.509 19.6011 79.8838 18.2673 77.9823 17.4796C76.0808 16.692 73.9885 16.4859 71.9698 16.8875C69.9512 17.289 68.097 18.2801 66.6417 19.7354C65.1863 21.1908 64.1952 23.045 63.7937 25.0636C63.3922 27.0822 63.5983 29.1746 64.3859 31.0761C65.1735 32.9775 66.5073 34.6028 68.2186 35.7462C69.9299 36.8897 71.9418 37.5 74 37.5C76.759 37.4969 79.404 36.3995 81.3549 34.4487C83.3058 32.4978 84.4031 29.8527 84.4063 27.0938ZM68.2188 27.0938C68.2188 25.9503 68.5578 24.8326 69.1931 23.8819C69.8283 22.9311 70.7312 22.1901 71.7876 21.7526C72.844 21.315 74.0064 21.2005 75.1279 21.4236C76.2493 21.6467 77.2794 22.1973 78.088 23.0058C78.8965 23.8143 79.4471 24.8444 79.6702 25.9659C79.8932 27.0873 79.7788 28.2498 79.3412 29.3061C78.9036 30.3625 78.1626 31.2654 77.2119 31.9007C76.2612 32.5359 75.1434 32.875 74 32.875C72.4673 32.8732 70.9978 32.2635 69.914 31.1797C68.8302 30.0959 68.2206 28.6265 68.2188 27.0938Z" fill="#794911"/>
<path d="M121.407 77.9688H93.3203C94.2885 78.4747 95.1733 79.1263 95.9438 79.9007C96.7309 80.6962 97.3961 81.6037 97.9177 82.5938H121.407C122.021 82.5938 122.609 82.3501 123.042 81.9164C123.476 81.4828 123.72 80.8946 123.72 80.2812C123.72 79.6679 123.476 79.0797 123.042 78.6461C122.609 78.2124 122.021 77.9688 121.407 77.9688Z" fill="#794911"/>
<path d="M21.0793 109.448C19.1948 109.448 17.3441 107.163 17.3441 104.836V37.9415C17.3226 36.9281 17.7036 35.9475 18.4038 35.2146C19.1039 34.4817 20.066 34.0561 21.0793 34.0312H44.5534C43.6347 32.6437 43.0558 31.0592 42.8635 29.4062H21.0793C18.8397 29.4322 16.7018 30.3453 15.1345 31.9454C13.5673 33.5454 12.6986 35.7018 12.7191 37.9415V104.836C12.7191 109.757 16.626 114.073 21.0793 114.073H61.3223C62.1977 114.345 63.0502 114.686 63.8718 115.093C64.0821 114.129 64.4193 113.198 64.8745 112.323C65.1397 111.819 65.4469 111.338 65.793 110.886C64.4289 110.169 62.9551 109.683 61.4318 109.448H21.0793Z" fill="#794911"/>
<path d="M126.921 29.4062H105.137C104.945 31.0592 104.366 32.6437 103.447 34.0312H126.921C127.935 34.0561 128.897 34.4817 129.597 35.2146C130.297 35.9475 130.678 36.9281 130.656 37.9415V104.836C130.656 107.466 129.051 109.448 126.921 109.448H125.017C125.671 110.903 126.014 112.478 126.026 114.073H126.921C131.609 114.073 135.281 110.016 135.281 104.836V37.9415C135.302 35.7018 134.433 33.5454 132.866 31.9454C131.299 30.3453 129.161 29.4322 126.921 29.4062Z" fill="#794911"/>
<path d="M121.405 87.2188H99.2734C99.3041 87.5787 99.3232 87.9406 99.3215 88.3045L99.3012 91.2832C99.9592 91.4104 100.604 91.5981 101.228 91.8438H121.405C122.019 91.8438 122.607 91.6001 123.041 91.1664C123.474 90.7328 123.718 90.1446 123.718 89.5312C123.718 88.9179 123.474 88.3297 123.041 87.8961C122.607 87.4624 122.019 87.2188 121.405 87.2188Z" fill="#794911"/>
<path d="M121.407 96.4688H106.832C107.079 96.8633 107.301 97.2722 107.499 97.6933C110.038 98.0324 112.384 99.2328 114.145 101.094H121.407C122.02 101.094 122.608 100.85 123.042 100.416C123.475 99.9828 123.719 99.3946 123.719 98.7812C123.719 98.1679 123.475 97.5797 123.042 97.1461C122.608 96.7124 122.02 96.4688 121.407 96.4688Z" fill="#794911"/>
<path d="M72.937 58.3125C72.5192 58.3097 72.102 58.2824 71.6875 58.2307V106.843C72.9001 106.474 74.1711 106.333 75.4352 106.43C75.7344 106.454 76.0211 106.52 76.3125 106.571V58.2307C75.898 58.2824 75.4808 58.3097 75.063 58.3125H72.937Z" fill="#794911"/>
</g>
<defs>
<clipPath id="clip0_577_2532">
<rect width="148" height="148" fill="white" transform="translate(0 0.5)"/>
</clipPath>
</defs>
</svg>
