<svg width="154" height="154" viewBox="0 0 154 154" fill="none" xmlns="http://www.w3.org/2000/svg">
<g clip-path="url(#clip0_266_1778)">
<path d="M151.513 68.1862V121.545C151.513 123.533 149.903 125.143 147.915 125.143H6.08528C4.09726 125.143 2.48706 123.533 2.48706 121.545V32.7888C2.48706 30.8008 4.09726 29.1906 6.08528 29.1906H147.915C149.903 29.1906 151.513 30.8008 151.513 32.7888V57.6914" stroke="#794911" stroke-width="5" stroke-miterlimit="10" stroke-linecap="round" stroke-linejoin="round"/>
<path d="M46.2113 88.648H62.7661C64.3343 88.648 65.6027 87.3766 65.6027 85.8114V44.0182C65.6027 42.4529 64.3343 41.1846 62.7661 41.1846H17.3177C15.7494 41.1846 14.4811 42.4529 14.4811 44.0182V85.8114C14.4811 87.3766 15.7494 88.648 17.3177 88.648H35.7165" stroke="#794911" stroke-width="5" stroke-miterlimit="10" stroke-linecap="round" stroke-linejoin="round"/>
<path d="M120.097 113.148C130.823 113.148 139.519 104.452 139.519 93.7257C139.519 82.9991 130.823 74.3035 120.097 74.3035C109.37 74.3035 100.674 82.9991 100.674 93.7257C100.674 104.452 109.37 113.148 120.097 113.148Z" stroke="#794911" stroke-width="5" stroke-miterlimit="10" stroke-linecap="round" stroke-linejoin="round"/>
<path d="M24.5651 88.6481V79.7215C24.5651 74.7559 28.5921 70.726 33.5606 70.726H46.5232C51.4917 70.726 55.5187 74.7559 55.5187 79.7215V88.6481" stroke="#794911" stroke-width="5" stroke-miterlimit="10" stroke-linecap="round" stroke-linejoin="round"/>
<path d="M40.0419 70.7844C45.2703 70.7844 49.5088 66.5459 49.5088 61.3175C49.5088 56.0891 45.2703 51.8506 40.0419 51.8506C34.8135 51.8506 30.575 56.0891 30.575 61.3175C30.575 66.5459 34.8135 70.7844 40.0419 70.7844Z" stroke="#794911" stroke-width="5" stroke-miterlimit="10" stroke-linecap="round" stroke-linejoin="round"/>
<path d="M133.831 79.9913L106.362 107.461" stroke="#794911" stroke-width="5" stroke-miterlimit="10" stroke-linecap="round" stroke-linejoin="round"/>
<path d="M77.5965 53.1781H139.519" stroke="#794911" stroke-width="5" stroke-miterlimit="10" stroke-linecap="round" stroke-linejoin="round"/>
<path d="M77.5965 41.184H139.519" stroke="#794911" stroke-width="5" stroke-miterlimit="10" stroke-linecap="round" stroke-linejoin="round"/>
<path d="M77.5965 65.1721H139.519" stroke="#794911" stroke-width="5" stroke-miterlimit="10" stroke-linecap="round" stroke-linejoin="round"/>
<path d="M77.5965 77.1661H88.5908" stroke="#794911" stroke-width="5" stroke-miterlimit="10" stroke-linecap="round" stroke-linejoin="round"/>
<path d="M77.5965 89.1602H88.6802" stroke="#794911" stroke-width="5" stroke-miterlimit="10" stroke-linecap="round" stroke-linejoin="round"/>
<path d="M14.4811 101.154H88.6802" stroke="#794911" stroke-width="5" stroke-miterlimit="10" stroke-linecap="round" stroke-linejoin="round"/>
<path d="M14.4811 113.148H88.6802" stroke="#794911" stroke-width="5" stroke-miterlimit="10" stroke-linecap="round" stroke-linejoin="round"/>
<path d="M126.61 98.2664H113.583C111.075 98.2664 109.042 96.2334 109.042 93.7257C109.042 91.2181 111.075 89.1851 113.583 89.1851H126.61C129.118 89.1851 131.151 91.2181 131.151 93.7257C131.151 96.2337 129.118 98.2664 126.61 98.2664Z" stroke="#794911" stroke-width="5" stroke-miterlimit="10" stroke-linecap="round" stroke-linejoin="round"/>
</g>
<defs>
<clipPath id="clip0_266_1778">
<rect width="153.524" height="153.524" fill="white" transform="translate(0.238159 0.404785)"/>
</clipPath>
</defs>
</svg>
