<svg width="64" height="64" viewBox="0 0 64 64" fill="none" xmlns="http://www.w3.org/2000/svg">
<path d="M20.14 45.3287C19.0538 44.2425 19.62 44.5487 17 43.8475C15.8113 43.5287 14.7663 42.9162 13.8213 42.1825L8.15 56.0875C7.60125 57.4337 8.62625 58.8962 10.0788 58.8412L16.665 58.59L21.195 63.375C22.195 64.43 23.95 64.1012 24.4988 62.755L31.005 46.8025C29.65 47.5575 28.1463 48 26.5913 48C24.1538 48 21.8638 47.0512 20.14 45.3287ZM55.85 56.0875L50.1788 42.1825C49.2338 42.9175 48.1888 43.5287 47 43.8475C44.3663 44.5525 44.9438 44.245 43.86 45.3287C42.1363 47.0512 39.845 48 37.4075 48C35.8525 48 34.3488 47.5562 32.9938 46.8025L39.5 62.755C40.0488 64.1012 41.805 64.43 42.8038 63.375L47.335 58.59L53.9213 58.8412C55.3738 58.8962 56.3988 57.4325 55.85 56.0875ZM40.875 42.5C42.785 40.5562 43.0038 40.7237 45.7238 39.9825C47.46 39.5087 48.8175 38.1275 49.2825 36.36C50.2175 32.81 49.975 33.2387 52.5263 30.6412C53.7975 29.3475 54.2938 27.4612 53.8288 25.6937C52.895 22.1462 52.8938 22.6412 53.8288 19.09C54.2938 17.3225 53.7975 15.4362 52.5263 14.1425C49.975 11.545 50.2175 11.9725 49.2825 8.42372C48.8175 6.65622 47.46 5.27497 45.7238 4.80122C42.2388 3.84997 42.6588 4.09872 40.105 1.49997C38.8338 0.20622 36.98 -0.30003 35.2438 0.17372C31.76 1.12372 32.2463 1.12497 28.7563 0.17372C27.02 -0.30003 25.1663 0.20497 23.895 1.49997C21.3438 4.09747 21.7638 3.84997 18.2775 4.80122C16.5413 5.27497 15.1838 6.65622 14.7188 8.42372C13.785 11.9725 14.0263 11.545 11.475 14.1425C10.2038 15.4362 9.70625 17.3225 10.1725 19.09C11.1063 22.635 11.1075 22.14 10.1725 25.6925C9.7075 27.46 10.2038 29.3462 11.475 30.6412C14.0263 33.2387 13.7838 32.81 14.7188 36.36C15.1838 38.1275 16.5413 39.5087 18.2775 39.9825C21.075 40.745 21.2838 40.625 23.125 42.5C24.7788 44.1837 27.355 44.485 29.3425 43.2275C30.1373 42.7229 31.0592 42.455 32.0006 42.455C32.942 42.455 33.864 42.7229 34.6588 43.2275C36.645 44.485 39.2213 44.1837 40.875 42.5ZM20.2075 21.995C20.2075 15.3662 25.4875 9.99247 32 9.99247C38.5125 9.99247 43.7925 15.3662 43.7925 21.995C43.7925 28.6237 38.5125 33.9975 32 33.9975C25.4875 33.9975 20.2075 28.6237 20.2075 21.995Z" fill="#FCB521"/>
</svg>
