<svg width="65" height="64" viewBox="0 0 65 64" fill="none" xmlns="http://www.w3.org/2000/svg">
<path d="M44.2584 40.075L32.3334 52L20.4084 40.075C11.4709 40.4625 4.33337 47.775 4.33337 56.8V58C4.33337 61.3125 7.02087 64 10.3334 64H54.3334C57.6459 64 60.3334 61.3125 60.3334 58V56.8C60.3334 47.775 53.1959 40.4625 44.2584 40.075ZM6.03337 9.97501L6.83337 10.1625V17.4625C5.95837 17.9875 5.33337 18.9 5.33337 20C5.33337 21.05 5.90837 21.925 6.72087 22.4625L4.77087 30.25C4.55837 31.1125 5.03337 32 5.72087 32H10.9459C11.6334 32 12.1084 31.1125 11.8959 30.25L9.94587 22.4625C10.7584 21.925 11.3334 21.05 11.3334 20C11.3334 18.9 10.7084 17.9875 9.83337 17.4625V10.8875L18.0834 12.875C17.0084 15.025 16.3334 17.425 16.3334 20C16.3334 28.8375 23.4959 36 32.3334 36C41.1709 36 48.3334 28.8375 48.3334 20C48.3334 17.425 47.6709 15.025 46.5834 12.875L58.6209 9.97501C60.8959 9.42501 60.8959 6.58751 58.6209 6.03751L34.8209 0.287512C33.1959 -0.0999878 31.4834 -0.0999878 29.8584 0.287512L6.03337 6.02501C3.77087 6.57501 3.77087 9.42501 6.03337 9.97501Z" fill="#FCB521"/>
</svg>
