<svg width="65" height="64" viewBox="0 0 65 64" fill="none" xmlns="http://www.w3.org/2000/svg">
<path d="M50.2668 28.8C42.3067 28.8 35.8667 35.24 35.8667 43.2C35.8667 51.16 42.3067 57.6 50.2668 57.6C58.2267 57.6 64.6667 51.16 64.6667 43.2C64.6667 35.24 58.2267 28.8 50.2668 28.8ZM56.6667 43.83C56.6667 44.36 56.2267 44.8 55.6967 44.8H49.6367C49.1068 44.8 48.6667 44.36 48.6667 43.83V36.17C48.6667 35.64 49.1068 35.2 49.6367 35.2H50.8967C51.4267 35.2 51.8667 35.64 51.8667 36.17V41.6H55.6967C56.2267 41.6 56.6667 42.04 56.6667 42.57V43.83ZM32.6667 43.2C32.6667 40.42 33.3368 37.79 34.4868 35.45C33.6867 35.3 32.8667 35.2 32.0267 35.2H30.3567C28.1367 36.22 25.6667 36.8 23.0667 36.8C20.4667 36.8 18.0067 36.22 15.7767 35.2H14.1067C6.68675 35.2 0.666748 41.22 0.666748 48.64V52.8C0.666748 55.45 2.81675 57.6 5.46675 57.6H40.1768C35.6467 54.41 32.6667 49.15 32.6667 43.2ZM23.0667 32C30.1367 32 35.8667 26.27 35.8667 19.2C35.8667 12.13 30.1367 6.40002 23.0667 6.40002C15.9967 6.40002 10.2667 12.13 10.2667 19.2C10.2667 26.27 15.9967 32 23.0667 32Z" fill="#FCB521"/>
</svg>
