<svg width="64" height="64" viewBox="0 0 64 64" fill="none" xmlns="http://www.w3.org/2000/svg">
<path d="M56.8325 26.5413L55.4275 23.0287L52.9362 16.8C50.7975 11.4537 45.6963 8 39.9375 8H24.0625C18.305 8 13.2025 11.4537 11.0638 16.8L8.5725 23.0287L7.1675 26.5413C4.1525 27.6875 2 30.5825 2 34V40C2 42.015 2.77 43.8337 4 45.2412V52C4 54.2088 5.79125 56 8 56H12C14.2087 56 16 54.2088 16 52V48H48V52C48 54.2088 49.7912 56 52 56H56C58.2088 56 60 54.2088 60 52V45.2412C61.23 43.835 62 42.0163 62 40V34C62 30.5825 59.8475 27.6875 56.8325 26.5413ZM18.4912 19.7712C19.4025 17.4937 21.6087 16 24.0625 16H39.9375C42.3913 16 44.5975 17.4937 45.5088 19.7712L48 26H16L18.4912 19.7712ZM12 39.975C9.6 39.975 8 38.38 8 35.9875C8 33.595 9.6 32 12 32C14.4 32 18 35.5888 18 37.9813C18 40.3737 14.4 39.975 12 39.975ZM52 39.975C49.6 39.975 46 40.3737 46 37.9813C46 35.5888 49.6 32 52 32C54.4 32 56 33.595 56 35.9875C56 38.38 54.4 39.975 52 39.975Z" fill="#FCB521"/>
</svg>
