<svg width="64" height="64" viewBox="0 0 64 64" fill="none" xmlns="http://www.w3.org/2000/svg">
<path d="M44.0001 22.5404C42.8685 22.5531 41.7876 23.0116 40.992 23.8163C40.1963 24.6209 39.75 25.7069 39.75 26.8385C39.75 27.9701 40.1962 29.0561 40.9918 29.8608C41.7875 30.6655 42.8683 31.124 43.9999 31.1368C45.1315 31.124 46.2123 30.6656 47.008 29.8609C47.8037 29.0563 48.2499 27.9703 48.25 26.8387C48.25 25.707 47.8038 24.6211 47.0081 23.8164C46.2125 23.0117 45.1316 22.5532 44.0001 22.5404Z" fill="#FCB521"/>
<path d="M20.0001 22.5404C18.8685 22.5531 17.7876 23.0116 16.992 23.8163C16.1963 24.6209 15.75 25.7069 15.75 26.8385C15.75 27.9701 16.1962 29.0561 16.9918 29.8608C17.7875 30.6655 18.8683 31.124 19.9999 31.1368C21.1315 31.124 22.2123 30.6656 23.008 29.8609C23.8037 29.0563 24.2499 27.9703 24.25 26.8387C24.25 25.707 23.8038 24.6211 23.0081 23.8164C22.2125 23.0117 21.1316 22.5532 20.0001 22.5404Z" fill="#FCB521"/>
<path d="M32.0001 34.1967C30.8685 34.2094 29.7876 34.6678 28.992 35.4725C28.1963 36.2772 27.75 37.3631 27.75 38.4948C27.75 39.6264 28.1962 40.7124 28.9918 41.5171C29.7875 42.3218 30.8683 42.7802 31.9999 42.793C33.1315 42.7803 34.2123 42.3218 35.008 41.5172C35.8037 40.7125 36.2499 39.6265 36.25 38.4949C36.25 37.3633 35.8038 36.2773 35.0081 35.4726C34.2125 34.6679 33.1316 34.2094 32.0001 34.1967Z" fill="#FCB521"/>
<path d="M4.04297 32C4.04295 39.4147 6.9884 46.5257 12.2313 51.7687C17.4743 57.0116 24.5853 59.9571 32 59.9572C39.4146 59.9572 46.5256 57.0117 51.7686 51.7688C57.0116 46.5258 59.9571 39.4148 59.9571 32.0002C58.4268 -5.07795 5.57893 -5.08877 4.04297 32ZM21.3333 33.6685V48.7331H18.6667V33.6685C17.093 33.3465 15.6787 32.4909 14.6631 31.2464C13.6475 30.0019 13.0928 28.4449 13.0928 26.8385C13.0928 25.2322 13.6475 23.6752 14.6631 22.4307C15.6787 21.1862 17.093 20.3306 18.6667 20.0085V15.2669H21.3333V20.0086C22.907 20.3306 24.3212 21.1862 25.3368 22.4307C26.3524 23.6752 26.9071 25.2322 26.9071 26.8385C26.9071 28.4449 26.3524 30.0019 25.3368 31.2464C24.3212 32.4909 22.907 33.3465 21.3333 33.6685ZM33.3333 45.3248V48.7331H30.6667V45.3248C29.093 45.0028 27.6787 44.1471 26.6631 42.9026C25.6475 41.6581 25.0928 40.1011 25.0928 38.4948C25.0928 36.8885 25.6475 35.3314 26.6631 34.0869C27.6787 32.8424 29.093 31.9868 30.6667 31.6648V15.2669H33.3333V31.6648C34.907 31.9868 36.3213 32.8424 37.3369 34.0869C38.3525 35.3314 38.9072 36.8885 38.9072 38.4948C38.9072 40.1011 38.3525 41.6582 37.3369 42.9027C36.3213 44.1472 34.907 45.0028 33.3333 45.3248ZM45.3333 33.6685V48.7331H42.6667V33.6685C41.093 33.3465 39.6787 32.4909 38.6631 31.2464C37.6475 30.0019 37.0928 28.4449 37.0928 26.8385C37.0928 25.2322 37.6475 23.6752 38.6631 22.4307C39.6787 21.1862 41.093 20.3306 42.6667 20.0085V15.2669H45.3333V20.0086C46.907 20.3306 48.3212 21.1862 49.3368 22.4307C50.3524 23.6752 50.9071 25.2322 50.9071 26.8385C50.9071 28.4449 50.3524 30.0019 49.3368 31.2464C48.3212 32.4909 46.907 33.3465 45.3333 33.6685Z" fill="#FCB521"/>
</svg>
