<svg width="100" height="100" viewBox="0 0 100 100" fill="none" xmlns="http://www.w3.org/2000/svg">
<circle cx="50" cy="50" r="50" fill="#FFF0D2"/>
<path d="M77.5171 40.8276H22.4826L17.2412 56.5518H82.7584L77.5171 40.8276ZM26.4136 51.3104L27.724 46.069H72.2757L73.586 51.3104H26.4136Z" fill="#464747"/>
<path d="M77.5171 40.8276H74.3329L75.355 47.9428C75.4603 48.6864 75.4049 49.4439 75.1926 50.1642C74.9802 50.8845 74.6159 51.551 74.1241 52.1185C73.6323 52.6861 73.0245 53.1415 72.3417 53.4542C71.6589 53.7669 70.917 53.9295 70.166 53.9311H29.8336C29.0826 53.9295 28.3407 53.7669 27.6579 53.4542C26.9752 53.1415 26.3674 52.6861 25.8756 52.1185C25.3838 51.551 25.0194 50.8845 24.8071 50.1642C24.5947 49.4439 24.5394 48.6864 24.6447 47.9428L25.6667 40.8276H22.4826L17.2412 56.5518H82.7584L77.5171 40.8276Z" fill="#696965"/>
<path d="M55.2415 68.3447H44.7588L46.0691 82.7585H53.9312L55.2415 68.3447Z" fill="#696965"/>
<path d="M49.4236 74.8964C49.4239 75.1129 49.4503 75.3284 49.5022 75.5385C49.6435 76.1052 49.9708 76.608 50.4316 76.9668C50.8925 77.3255 51.4603 77.5192 52.0443 77.5171H54.4029L53.9312 82.7585H46.0691L44.7588 68.3447H55.2415L54.8878 72.2758H52.0443C51.3499 72.2778 50.6845 72.5546 50.1935 73.0456C49.7025 73.5367 49.4257 74.202 49.4236 74.8964Z" fill="#555252"/>
<path d="M50 12C42.4843 12 35.1374 14.2287 28.8883 18.4042C22.6393 22.5796 17.7687 28.5144 14.8926 35.458C12.0165 42.4016 11.2639 50.0421 12.7302 57.4134C14.1964 64.7847 17.8156 71.5556 23.13 76.87C28.4444 82.1844 35.2153 85.8036 42.5866 87.2698C49.9579 88.7361 57.5984 87.9835 64.542 85.1074C71.4856 82.2313 77.4203 77.3607 81.5958 71.1117C85.7713 64.8626 88 57.5157 88 50C88 39.9218 83.9964 30.2563 76.8701 23.1299C69.7437 16.0036 60.0782 12 50 12ZM50 81.4483C43.7801 81.4483 37.6999 79.6039 32.5283 76.1483C27.3566 72.6927 23.3258 67.7811 20.9456 62.0347C18.5654 56.2883 17.9426 49.9651 19.156 43.8647C20.3694 37.7644 23.3646 32.1608 27.7627 27.7627C32.1608 23.3646 37.7644 20.3694 43.8648 19.156C49.9651 17.9426 56.2883 18.5653 62.0347 20.9456C67.7812 23.3258 72.6927 27.3566 76.1483 32.5283C79.6039 37.6999 81.4483 43.7801 81.4483 50C81.4483 58.3406 78.135 66.3396 72.2373 72.2373C66.3396 78.135 58.3406 81.4483 50 81.4483Z" fill="#343636"/>
<path d="M12 50C12.0032 58.2955 14.72 66.3623 19.7358 72.9696C24.7517 79.577 31.7912 84.3622 39.7805 86.5952C47.7699 88.8283 56.2703 88.3865 63.9852 85.3374C71.7 82.2883 78.2057 76.7992 82.5096 69.7076C78.7604 74.4286 73.9413 78.1894 68.4507 80.679C62.9601 83.1686 56.9557 84.3155 50.9341 84.0249C44.9124 83.7342 39.0464 82.0144 33.8211 79.0075C28.5958 76.0007 24.1612 71.7933 20.8841 66.7331C21.0283 66.6676 21.1724 66.6021 21.3297 66.5365C21.8735 66.3316 22.3281 65.942 22.6138 65.4359C19.9403 60.7315 18.5401 55.411 18.5517 50H12Z" fill="#464646"/>
<path d="M36.8965 40.8278V56.5519L44.7586 68.345H55.2413L63.1034 56.5519V40.8278C63.1034 39.4377 62.5512 38.1045 61.5682 37.1216C60.5853 36.1386 59.2521 35.5864 57.862 35.5864H42.1379C40.7478 35.5864 39.4146 36.1386 38.4316 37.1216C37.4487 38.1045 36.8965 39.4377 36.8965 40.8278Z" fill="#93999A"/>
<path d="M84.6717 34.4463C82.7595 35.5048 80.7766 36.4303 78.7372 37.2164C78.1035 37.4666 77.5922 37.9538 77.3117 38.5746C77.0311 39.1954 77.0033 39.9011 77.2342 40.542C79.3586 46.6684 79.3586 53.3317 77.2342 59.4581C77.0033 60.0991 77.0311 60.8048 77.3117 61.4256C77.5922 62.0464 78.1035 62.5336 78.7372 62.7838C80.7766 63.5698 82.7595 64.4954 84.6717 65.5539C86.8657 60.662 87.9999 55.3614 87.9999 50.0001C87.9999 44.6388 86.8657 39.3381 84.6717 34.4463Z" fill="#F8B624"/>
<path d="M15.3282 34.4463C13.1342 39.3381 12 44.6388 12 50.0001C12 55.3614 13.1342 60.662 15.3282 65.5539C17.2405 64.4954 19.2233 63.5698 21.2628 62.7838C21.8964 62.5336 22.4077 62.0464 22.6883 61.4256C22.9688 60.8048 22.9966 60.0991 22.7657 59.4581C20.6413 53.3317 20.6413 46.6684 22.7657 40.542C22.9966 39.9011 22.9688 39.1954 22.6883 38.5746C22.4077 37.9538 21.8964 37.4666 21.2628 37.2164C19.2233 36.4303 17.2405 35.5048 15.3282 34.4463Z" fill="#F8B624"/>
<path d="M61.3606 59.1726L55.2413 68.345H44.7586L36.8965 56.5519V40.8278C36.8965 39.4377 37.4487 38.1045 38.4316 37.1216C39.4146 36.1386 40.7478 35.5864 42.1379 35.5864H46.0689V47.8906C46.0713 50.882 47.2607 53.7502 49.376 55.8655C51.4913 57.9808 54.3595 59.1702 57.351 59.1726H61.3606Z" fill="#656B76"/>
<path d="M49.9998 57.8618C54.3419 57.8618 57.8618 54.3419 57.8618 49.9998C57.8618 45.6577 54.3419 42.1377 49.9998 42.1377C45.6577 42.1377 42.1377 45.6577 42.1377 49.9998C42.1377 54.3419 45.6577 57.8618 49.9998 57.8618Z" fill="#E9F1F2"/>
<path d="M51.7428 57.6654C51.1713 57.7976 50.5866 57.8636 50 57.862C48.2719 57.8589 46.5929 57.2866 45.2227 56.2334C43.8525 55.1803 42.8675 53.705 42.42 52.0358C41.9725 50.3666 42.0875 48.5965 42.747 46.9992C43.4066 45.4018 44.5741 44.0663 46.069 43.1992V47.8903C46.0673 50.1203 46.7287 52.3004 47.969 54.1537C48.9344 55.6038 50.227 56.8067 51.7428 57.6654Z" fill="#D0D8DA"/>
<path d="M49.9999 53.9309C52.1709 53.9309 53.9309 52.1709 53.9309 49.9999C53.9309 47.8288 52.1709 46.0688 49.9999 46.0688C47.8288 46.0688 46.0688 47.8288 46.0688 49.9999C46.0688 52.1709 47.8288 53.9309 49.9999 53.9309Z" fill="#93999A"/>
<path d="M53.7606 51.1399C53.564 51.7903 53.2021 52.3785 52.7103 52.8473C52.2185 53.3161 51.6137 53.6494 50.9547 53.8148C50.2957 53.9802 49.6051 53.9719 48.9503 53.7908C48.2954 53.6098 47.6987 53.2621 47.2183 52.7816C46.7378 52.3012 46.3901 51.7045 46.2091 51.0496C46.028 50.3948 46.0197 49.7042 46.1851 49.0452C46.3505 48.3862 46.6838 47.7814 47.1526 47.2896C47.6214 46.7978 48.2096 46.4359 48.86 46.2393C48.7493 46.6092 48.6919 46.9931 48.6896 47.3793C48.6896 47.8955 48.7913 48.4067 48.9888 48.8836C49.1864 49.3605 49.476 49.7939 49.841 50.1589C50.206 50.5239 50.6394 50.8135 51.1163 51.0111C51.5932 51.2086 52.1044 51.3103 52.6206 51.3103C53.0068 51.308 53.3907 51.2506 53.7606 51.1399Z" fill="#656B76"/>
<path d="M46.1619 49.1641C46.1015 49.4387 46.0704 49.7189 46.0688 50.0001C46.0698 50.9971 46.4524 51.9559 47.1381 52.6797C46.6234 51.5688 46.2936 50.3813 46.1619 49.1641Z" fill="#AD4038"/>
<path d="M22.771 59.4606C22.5585 58.8816 22.3791 58.291 22.2338 57.6916C21.4289 57.921 20.5856 57.9835 19.7557 57.8753C18.9258 57.767 18.1268 57.4902 17.4077 57.062C16.6886 56.6337 16.0647 56.063 15.5741 55.3849C15.0836 54.7067 14.7369 53.9355 14.5552 53.1185C13.9382 50.3524 13.6262 47.5271 13.6248 44.693C13.6233 41.8537 13.9398 39.0232 14.5683 36.2544C12.7509 40.9457 11.8823 45.9509 12.0128 50.9802C12.1432 56.0095 13.2702 60.9629 15.3283 65.5537C17.2401 64.4951 19.2236 63.5712 21.2641 62.7889C21.8961 62.5356 22.4058 62.0479 22.6866 61.4277C22.9675 60.8074 22.9977 60.1026 22.771 59.4606Z" fill="#B17C10"/>
<path d="M86.5195 60.5349C86.0274 62.2508 85.4099 63.9282 84.6719 65.5535C82.7601 64.4949 80.7766 63.571 78.7361 62.7887C78.104 62.5355 77.5944 62.0477 77.3135 61.4275C77.0327 60.8072 77.0025 60.1025 77.2292 59.4604C79.3607 53.3334 79.3607 46.6661 77.2292 40.5391C77.0025 39.897 77.0327 39.1923 77.3135 38.572C77.5944 37.9517 78.104 37.464 78.7361 37.2108C79.5354 36.8963 80.3085 36.5818 81.0685 36.228C81.0851 36.3577 81.1158 36.4851 81.1602 36.608C83.2917 42.7351 83.2917 49.4024 81.1602 55.5294C80.9335 56.1714 80.9638 56.8762 81.2446 57.4965C81.5254 58.1167 82.0351 58.6044 82.6671 58.8577C84.0167 59.3818 85.3009 59.9322 86.5195 60.5349Z" fill="#B17C10"/>
<path d="M49.9999 53.9309C48.9573 53.9309 47.9574 53.5168 47.2202 52.7795C46.483 52.0423 46.0688 51.0425 46.0688 49.9999C46.0688 48.9573 46.483 47.9574 47.2202 47.2202C47.9574 46.483 48.9573 46.0688 49.9999 46.0688C50.3474 46.0688 50.6807 46.2069 50.9264 46.4526C51.1722 46.6984 51.3102 47.0317 51.3102 47.3792C51.3102 47.7267 51.1722 48.06 50.9264 48.3057C50.6807 48.5515 50.3474 48.6895 49.9999 48.6895C49.6524 48.6895 49.3191 48.8276 49.0733 49.0733C48.8276 49.3191 48.6895 49.6524 48.6895 49.9999C48.6895 50.3474 48.8276 50.6807 49.0733 50.9264C49.3191 51.1722 49.6524 51.3102 49.9999 51.3102C50.3474 51.3102 50.6807 51.4483 50.9264 51.694C51.1722 51.9398 51.3102 52.273 51.3102 52.6206C51.3102 52.9681 51.1722 53.3014 50.9264 53.5471C50.6807 53.7929 50.3474 53.9309 49.9999 53.9309Z" fill="#F91109"/>
<path d="M51.3105 52.6206C51.3105 52.9682 51.1724 53.3015 50.9267 53.5472C50.6809 53.7929 50.3476 53.931 50.0001 53.931C49.0582 53.9299 48.148 53.5906 47.4352 52.9749C46.7224 52.3592 46.2543 51.508 46.1162 50.5763C45.9781 49.6445 46.1792 48.6942 46.6828 47.8982C47.1864 47.1022 47.959 46.5135 48.8601 46.2393C48.5751 47.1759 48.6499 48.1852 49.0698 49.0696C48.8262 49.318 48.6898 49.652 48.6898 49.9999C48.6898 50.3475 48.8278 50.6808 49.0736 50.9265C49.3193 51.1722 49.6526 51.3103 50.0001 51.3103C50.3476 51.3103 50.6809 51.4483 50.9267 51.6941C51.1724 51.9398 51.3105 52.2731 51.3105 52.6206Z" fill="#992419"/>
<path d="M47.1298 52.6863C46.4471 51.9585 46.0676 50.9979 46.0684 50.0001C46.0673 49.736 46.0936 49.4725 46.147 49.2139C46.2872 50.4164 46.619 51.5887 47.1298 52.6863Z" fill="#E53030"/>
<path d="M47.1298 52.6863C46.4471 51.9585 46.0676 50.9979 46.0684 50.0001C46.0673 49.736 46.0936 49.4725 46.147 49.2139C46.2872 50.4164 46.619 51.5887 47.1298 52.6863Z" fill="#E53030"/>
</svg>
