<svg width="1020" height="772" viewBox="0 0 1020 772" fill="none" xmlns="http://www.w3.org/2000/svg">
<g opacity="0.2">
<path d="M232.967 193.329C220.343 187.392 199.466 197.044 192.809 211.169C180.102 238.132 221.2 277.182 236.146 272.991C252.848 268.307 256.145 204.228 232.967 193.329Z" stroke="#ACAC0F" stroke-width="20" stroke-miterlimit="10" stroke-linecap="round" stroke-dasharray="50 50 50 50 50 50"/>
<path d="M169.825 254.401C165.319 251.795 117.596 224.188 90.5878 246.037C71.6242 261.377 71.4427 294.168 85.6935 312.598C113.918 349.098 201.441 332.734 210.522 306.616C216.638 289.027 187.926 264.872 169.825 254.401Z" stroke="#ACAC0F" stroke-width="20" stroke-miterlimit="10" stroke-linecap="round" stroke-dasharray="50 50 50 50 50 50"/>
<path d="M231.231 705.12C347.395 676.287 479.386 646.934 684.343 651.933C798.968 654.73 824.943 619.159 911.815 574.932C989.245 535.514 1027.27 457.132 1003.92 412.708C980.338 367.861 908.516 385.716 849.696 318.956C822.909 288.551 827.623 267.24 812.157 233.523C763.182 126.759 579.625 43.3115 489.11 87.4745C369.528 145.818 471.76 397.91 338.088 466.774C253.535 510.336 189.627 426.71 106.141 490.548C64.7738 522.179 14.1808 566.549 10.268 614.726C10.268 614.726 4.78959 732.512 231.231 705.12Z" stroke="#ACAC0F" stroke-width="20" stroke-miterlimit="10" stroke-linecap="round" stroke-dasharray="50 50 50 50 50 50"/>
<path d="M873.021 573.934C873.021 573.934 851.98 601.833 830.933 640.111C811.96 674.63 797.531 721.142 794.344 759.975C785.408 759.552 775.592 759.155 764.98 758.779C702.129 756.548 611.392 755.151 510.5 755.151C395.8 755.151 294.227 756.959 231.83 759.74C229.682 759.835 227.58 759.931 225.526 760.029C147.625 663.474 -9.24339 495.257 135.118 426.055C135.118 426.055 145.693 422.834 161.549 415.916C211.731 394.013 314.854 335.077 303.383 223.954C303.383 223.954 299.475 203.218 299.475 174.365C299.475 106.898 320.834 -4.93527 463.429 0.168803C549.78 3.26412 629.307 47.2057 677.387 117.54C724.547 186.524 799.953 271.401 861.361 222.945C875.537 211.755 894.28 207.61 911.779 212.529C955.981 224.944 1006.2 289.218 873.021 573.934Z" fill="#FFD77E"/>
</g>
<path opacity="0.15" d="M987.688 763.732C987.688 768.298 774.044 772 510.5 772C361.799 772 228.985 770.822 141.469 768.974C121.311 768.549 103.559 768.087 88.5699 767.598C78.6967 767.275 70.022 766.938 62.6476 766.591C43.6742 765.702 33.3115 764.739 33.3115 763.732C33.3115 762.451 50.1308 761.238 80.1501 760.157C92.4439 759.712 106.95 759.291 123.422 758.898C210.092 756.819 351.179 755.465 510.5 755.465C650.642 755.465 776.676 756.511 863.977 758.179C940.847 759.646 987.688 761.595 987.688 763.732Z" fill="#2B2504"/>
<path d="M663.993 156.606L632.733 215.186C631.549 217.405 628.79 218.243 626.571 217.059L574.771 189.417C572.552 188.233 571.713 185.474 572.897 183.255L609.911 113.894C611.095 111.675 613.854 110.836 616.073 112.02L656.822 133.765L656.95 134.173L663.993 156.606Z" fill="#C4C5C8"/>
<path opacity="0.1" d="M663.993 156.606L652.464 150.454C650.657 149.49 649.974 147.244 650.938 145.438L656.95 134.173L663.993 156.606Z" fill="black"/>
<path d="M613.35 168.047L614.332 166.207C615.18 164.616 616.258 163.414 617.566 162.599C618.873 161.785 620.784 161.198 623.298 160.836C625.701 160.521 627.388 160.123 628.359 159.64C629.33 159.158 630.072 158.436 630.585 157.474C631.16 156.397 631.2 155.365 630.705 154.377C630.21 153.389 629.25 152.514 627.825 151.754C625.339 150.427 622.072 149.727 618.023 149.653L618.219 142.763C623.019 142.663 627.492 143.719 631.635 145.93C635.049 147.752 637.325 150.021 638.463 152.736C639.601 155.451 639.441 158.176 637.981 160.91C637.009 162.733 635.754 164.087 634.218 164.97C632.682 165.854 630.311 166.506 627.107 166.924C624.888 167.252 623.404 167.61 622.654 167.997C621.904 168.385 621.264 169.076 620.733 170.07L619.937 171.562L613.35 168.047ZM608.017 176.124C608.76 174.732 609.695 173.879 610.821 173.564C611.947 173.25 613.222 173.472 614.648 174.233C616.023 174.967 616.893 175.9 617.259 177.031C617.623 178.163 617.443 179.408 616.718 180.767C616.019 182.076 615.087 182.905 613.923 183.252C612.758 183.599 611.496 183.41 610.138 182.685C608.746 181.942 607.865 180.998 607.496 179.854C607.127 178.71 607.301 177.466 608.017 176.124Z" fill="#706F68"/>
<path d="M238.183 467.715L201.23 524.416C199.83 526.564 196.954 527.171 194.806 525.771L144.667 493.095C142.519 491.695 141.913 488.819 143.313 486.671L187.067 419.534C188.466 417.386 191.342 416.78 193.49 418.18L232.933 443.885L233.027 444.31L238.183 467.715Z" fill="#C4C5C8"/>
<path opacity="0.1" d="M238.183 467.715L227.024 460.443C225.275 459.303 224.782 456.962 225.921 455.214L233.027 444.31L238.183 467.715Z" fill="black"/>
<path d="M198.05 494.186L191.365 489.829L191.75 475.201L178.523 481.46L172.253 477.374L190.693 469.104L190.833 450.146L197.291 454.355L196.766 468.165L209.076 462.035L215.383 466.146L197.792 474.188L198.05 494.186Z" fill="#706F68"/>
<path d="M880.51 288.152L904.751 351.341C905.669 353.735 904.473 356.42 902.079 357.338L846.203 378.774C843.809 379.692 841.125 378.496 840.206 376.102L811.504 301.283C810.585 298.889 811.781 296.204 814.175 295.286L858.131 278.423L858.53 278.597L880.51 288.152Z" fill="#C4C5C8"/>
<path opacity="0.1" d="M880.51 288.152L868.074 292.923C866.126 293.67 863.94 292.697 863.193 290.748L858.531 278.597L880.51 288.152Z" fill="black"/>
<path d="M874.843 342.592L870.112 344.407L863.499 340.755L861.024 347.893L856.588 349.595L860.247 339.753L851.53 335.174L856.101 333.42L862.279 336.937L864.44 330.221L868.903 328.509L865.483 337.935L874.843 342.592Z" fill="#706F68"/>
<path d="M872.806 300.133L829.615 316.702C829.099 316.9 828.52 316.643 828.322 316.126C828.123 315.61 828.381 315.031 828.898 314.833L872.089 298.264C872.605 298.066 873.184 298.324 873.382 298.84C873.58 299.356 873.322 299.935 872.806 300.133Z" fill="#706F68"/>
<path d="M874.67 304.802L831.479 321.372C830.963 321.57 830.384 321.312 830.186 320.795C829.988 320.279 830.246 319.7 830.762 319.502L873.953 302.933C874.469 302.735 875.048 302.993 875.246 303.509C875.444 304.025 875.186 304.604 874.67 304.802Z" fill="#706F68"/>
<path d="M876.535 309.471L833.344 326.04C832.828 326.239 832.249 325.981 832.051 325.464C831.853 324.948 832.111 324.369 832.627 324.171L875.818 307.602C876.334 307.404 876.914 307.662 877.111 308.178C877.309 308.694 877.051 309.273 876.535 309.471Z" fill="#706F68"/>
<path d="M878.401 314.14L835.21 330.709C834.694 330.908 834.114 330.65 833.916 330.133C833.718 329.617 833.976 329.038 834.492 328.84L877.683 312.271C878.2 312.073 878.779 312.331 878.977 312.847C879.175 313.363 878.917 313.942 878.401 314.14Z" fill="#706F68"/>
<path d="M879.913 318.964L836.722 335.533C836.206 335.731 835.627 335.473 835.429 334.957C835.231 334.441 835.489 333.862 836.005 333.664L879.196 317.095C879.712 316.896 880.291 317.154 880.489 317.671C880.687 318.187 880.429 318.766 879.913 318.964Z" fill="#706F68"/>
<path d="M248.153 633.554L275.416 695.5C276.448 697.846 275.383 700.586 273.037 701.618L218.26 725.726C215.913 726.759 213.174 725.694 212.141 723.347L179.861 650C178.828 647.654 179.893 644.914 182.24 643.882L225.33 624.917L225.738 625.071L248.153 633.554Z" fill="#C4C5C8"/>
<path opacity="0.1" d="M248.153 633.554L235.962 638.919C234.052 639.76 231.821 638.893 230.981 636.983L225.738 625.071L248.153 633.554Z" fill="black"/>
<path d="M245.12 688.204L240.482 690.245L233.701 686.917L231.574 694.166L227.224 696.08L230.405 686.073L221.477 681.919L225.957 679.947L232.298 683.161L234.133 676.349L238.508 674.424L235.546 684.004L245.12 688.204Z" fill="#706F68"/>
<path d="M241.036 645.893L198.695 664.528C198.189 664.75 197.598 664.521 197.376 664.014C197.153 663.508 197.383 662.918 197.889 662.695L240.229 644.06C240.736 643.838 241.326 644.068 241.549 644.574C241.772 645.08 241.542 645.67 241.036 645.893Z" fill="#706F68"/>
<path d="M243.124 650.467L200.784 669.101C200.278 669.324 199.687 669.094 199.464 668.588C199.241 668.082 199.471 667.491 199.977 667.268L242.318 648.634C242.824 648.411 243.415 648.641 243.637 649.147C243.86 649.653 243.63 650.244 243.124 650.467Z" fill="#706F68"/>
<path d="M245.212 655.04L202.871 673.675C202.365 673.898 201.775 673.668 201.552 673.162C201.329 672.656 201.559 672.065 202.065 671.842L244.406 653.208C244.912 652.985 245.503 653.215 245.725 653.721C245.948 654.227 245.718 654.818 245.212 655.04Z" fill="#706F68"/>
<path d="M247.301 659.614L204.96 678.248C204.454 678.471 203.863 678.241 203.64 677.735C203.417 677.229 203.647 676.638 204.153 676.416L246.494 657.781C247 657.558 247.591 657.788 247.814 658.294C248.036 658.8 247.807 659.391 247.301 659.614Z" fill="#706F68"/>
<path d="M249.044 664.359L206.703 682.993C206.197 683.216 205.606 682.986 205.383 682.48C205.161 681.974 205.39 681.383 205.897 681.161L248.237 662.526C248.743 662.303 249.334 662.533 249.557 663.039C249.779 663.545 249.55 664.136 249.044 664.359Z" fill="#706F68"/>
<path d="M437.387 186.377L464.65 248.323C465.683 250.669 464.617 253.409 462.271 254.441L407.494 278.549C405.148 279.582 402.408 278.517 401.376 276.17L369.095 202.823C368.062 200.477 369.128 197.737 371.474 196.705L414.565 177.74L414.972 177.894L437.387 186.377Z" fill="#C4C5C8"/>
<path opacity="0.1" d="M437.387 186.377L425.196 191.742C423.286 192.583 421.056 191.716 420.215 189.806L414.972 177.894L437.387 186.377Z" fill="black"/>
<path d="M434.355 241.027L429.717 243.068L422.935 239.74L420.809 246.989L416.459 248.903L419.64 238.896L410.712 234.742L415.192 232.77L421.533 235.984L423.368 229.172L427.743 227.247L424.781 236.827L434.355 241.027Z" fill="#706F68"/>
<path d="M430.269 198.716L387.928 217.351C387.422 217.573 386.831 217.344 386.609 216.838C386.386 216.331 386.616 215.741 387.122 215.518L429.462 196.883C429.968 196.661 430.559 196.89 430.782 197.397C431.005 197.903 430.775 198.493 430.269 198.716Z" fill="#706F68"/>
<path d="M432.357 203.29L390.016 221.924C389.51 222.147 388.919 221.917 388.697 221.411C388.474 220.905 388.704 220.314 389.21 220.092L431.551 201.457C432.057 201.234 432.648 201.464 432.87 201.97C433.093 202.476 432.863 203.067 432.357 203.29Z" fill="#706F68"/>
<path d="M434.446 207.863L392.105 226.498C391.599 226.721 391.008 226.491 390.785 225.985C390.562 225.479 390.792 224.888 391.298 224.665L433.639 206.031C434.145 205.808 434.736 206.038 434.959 206.544C435.181 207.05 434.952 207.641 434.446 207.863Z" fill="#706F68"/>
<path d="M436.534 212.437L394.193 231.072C393.687 231.294 393.096 231.064 392.873 230.558C392.65 230.052 392.88 229.461 393.386 229.239L435.727 210.604C436.233 210.382 436.824 210.611 437.047 211.117C437.269 211.624 437.04 212.214 436.534 212.437Z" fill="#706F68"/>
<path d="M438.277 217.182L395.936 235.816C395.43 236.039 394.839 235.809 394.617 235.303C394.394 234.797 394.624 234.206 395.13 233.983L437.471 215.349C437.977 215.126 438.568 215.356 438.79 215.862C439.013 216.368 438.783 216.959 438.277 217.182Z" fill="#706F68"/>
<path d="M722.232 359.263H298.769V666.542H722.232V359.263Z" fill="#E3E9F7"/>
<path d="M722.225 320.688H298.926V359.347H722.225V320.688Z" fill="#FCB426"/>
<path d="M318.504 344.4C322.097 344.4 325.009 341.63 325.009 338.214C325.009 334.798 322.097 332.028 318.504 332.028C314.912 332.028 311.999 334.798 311.999 338.214C311.999 341.63 314.912 344.4 318.504 344.4Z" fill="#E3E9F7"/>
<path d="M337.478 344.4C341.071 344.4 343.983 341.63 343.983 338.214C343.983 334.798 341.071 332.028 337.478 332.028C333.885 332.028 330.973 334.798 330.973 338.214C330.973 341.63 333.885 344.4 337.478 344.4Z" fill="#E3E9F7"/>
<path d="M356.451 344.4C360.044 344.4 362.957 341.63 362.957 338.214C362.957 334.798 360.044 332.028 356.451 332.028C352.859 332.028 349.946 334.798 349.946 338.214C349.946 341.63 352.859 344.4 356.451 344.4Z" fill="#E3E9F7"/>
<path d="M709.49 375.439H311.511V650.366H709.49V375.439Z" fill="#F4F6FC"/>
<path d="M572.236 443.038V563.917C572.236 568.496 568.524 572.208 563.945 572.208H457.056C452.477 572.208 448.765 568.496 448.765 563.917V420.79C448.765 416.211 452.477 412.499 457.056 412.499H541.142L541.697 413.044L572.236 443.038Z" fill="#FCB426"/>
<path opacity="0.15" d="M572.236 443.038H548.446C544.719 443.038 541.697 440.016 541.697 436.289V413.044L572.236 443.038Z" fill="black"/>
<path d="M540.15 512.776C539.213 512.776 538.391 512.172 538.09 511.284C537.308 508.973 534.749 506.694 530.807 504.858C525.419 502.348 518.207 500.967 510.5 500.967C502.794 500.967 495.582 502.348 490.194 504.858C486.252 506.694 483.693 508.973 482.911 511.284C482.61 512.172 481.788 512.776 480.851 512.776C479.372 512.776 478.321 511.328 478.788 509.926C479.948 506.438 483.248 503.311 488.364 500.929C494.313 498.159 502.175 496.633 510.5 496.633C518.826 496.633 526.688 498.159 532.636 500.929C537.753 503.311 541.053 506.438 542.213 509.926C542.68 511.329 541.629 512.776 540.15 512.776Z" fill="white"/>
<path d="M494.575 489.915C499.541 489.915 503.567 485.889 503.567 480.923C503.567 475.956 499.541 471.93 494.575 471.93C489.608 471.93 485.582 475.956 485.582 480.923C485.582 485.889 489.608 489.915 494.575 489.915Z" fill="white"/>
<path d="M526.428 489.915C531.394 489.915 535.42 485.889 535.42 480.923C535.42 475.956 531.394 471.93 526.428 471.93C521.461 471.93 517.435 475.956 517.435 480.923C517.435 485.889 521.461 489.915 526.428 489.915Z" fill="white"/>
<path d="M475.892 613.096H471.746L465.053 601.457H464.958C465.091 603.513 465.158 604.979 465.158 605.856V613.096H462.243V597.71H466.358L473.04 609.234H473.114C473.009 607.234 472.956 605.82 472.956 604.993V597.71H475.893L475.892 613.096Z" fill="black"/>
<path d="M493.73 605.382C493.73 607.929 493.099 609.886 491.836 611.254C490.573 612.622 488.763 613.306 486.405 613.306C484.048 613.306 482.238 612.622 480.975 611.254C479.712 609.886 479.081 607.922 479.081 605.361C479.081 602.8 479.714 600.845 480.981 599.494C482.247 598.143 484.062 597.468 486.427 597.468C488.791 597.468 490.599 598.149 491.852 599.51C493.104 600.871 493.73 602.828 493.73 605.382ZM482.501 605.382C482.501 607.101 482.827 608.395 483.48 609.265C484.132 610.135 485.108 610.57 486.405 610.57C489.008 610.57 490.31 608.841 490.31 605.382C490.31 601.916 489.015 600.183 486.426 600.183C485.128 600.183 484.15 600.62 483.49 601.494C482.831 602.367 482.501 603.663 482.501 605.382Z" fill="black"/>
<path d="M515.283 605.256C515.283 607.788 514.562 609.729 513.12 611.076C511.678 612.423 509.596 613.096 506.874 613.096H502.518V597.71H507.348C509.859 597.71 511.81 598.374 513.199 599.699C514.588 601.025 515.283 602.877 515.283 605.256ZM511.894 605.34C511.894 602.036 510.435 600.383 507.516 600.383H505.78V610.402H507.18C510.323 610.402 511.894 608.715 511.894 605.34Z" fill="black"/>
<path d="M527.89 613.096L526.775 609.434H521.166L520.05 613.096H516.535L521.965 597.647H525.954L531.405 613.096H527.89ZM525.996 606.698C524.965 603.379 524.384 601.502 524.255 601.067C524.125 600.632 524.032 600.288 523.976 600.036C523.744 600.934 523.081 603.155 521.987 606.698H525.996Z" fill="black"/>
<path d="M539.277 613.096H536.015V600.425H531.837V597.71H543.455V600.425H539.277V613.096Z" fill="black"/>
<path d="M555.241 613.096L554.126 609.434H548.517L547.401 613.096H543.886L549.317 597.647H553.305L558.756 613.096H555.241ZM553.347 606.698C552.316 603.379 551.735 601.502 551.606 601.067C551.476 600.632 551.383 600.288 551.327 600.036C551.095 600.934 550.432 603.155 549.338 606.698H553.347Z" fill="black"/>
<path d="M780.28 530.67H793.14C802.823 530.67 810.672 522.82 810.672 513.137C810.672 503.454 802.823 495.604 793.14 495.604H780.28C770.597 495.604 762.747 503.454 762.747 513.137C762.747 522.82 770.597 530.67 780.28 530.67Z" fill="white"/>
<path d="M781.149 527.842H792.27C792.27 527.842 791.275 536.797 781.149 541.245C781.149 541.245 786.476 533.402 781.149 527.842Z" fill="white"/>
<path d="M783.97 516.624V515.562C783.97 514.644 784.165 513.845 784.558 513.166C784.95 512.487 785.667 511.765 786.71 510.999C787.714 510.282 788.377 509.699 788.697 509.249C789.018 508.8 789.178 508.297 789.178 507.742C789.178 507.121 788.948 506.647 788.489 506.322C788.03 505.997 787.389 505.834 786.566 505.834C785.132 505.834 783.496 506.303 781.66 507.24L780.096 504.098C782.229 502.903 784.491 502.305 786.882 502.305C788.853 502.305 790.419 502.778 791.581 503.725C792.743 504.672 793.324 505.935 793.324 507.513C793.324 508.565 793.085 509.474 792.607 510.239C792.128 511.004 791.22 511.865 789.881 512.822C788.963 513.501 788.382 514.018 788.138 514.371C787.894 514.725 787.772 515.189 787.772 515.763V516.624H783.97ZM783.511 521.531C783.511 520.727 783.726 520.12 784.156 519.709C784.587 519.297 785.213 519.091 786.036 519.091C786.83 519.091 787.444 519.302 787.879 519.723C788.314 520.144 788.532 520.746 788.532 521.531C788.532 522.287 788.312 522.882 787.872 523.317C787.432 523.752 786.82 523.97 786.036 523.97C785.232 523.97 784.611 523.757 784.171 523.331C783.73 522.906 783.511 522.305 783.511 521.531Z" fill="#ACBCF8"/>
<path opacity="0.67" d="M745.48 750.651L751.494 752.992L749.74 761.475L739.466 758.257L745.48 750.651Z" fill="#050505"/>
<path d="M661.659 731.855C661.659 731.855 645.621 729.954 642.113 738.584C642.113 738.584 641.862 760.086 651.886 761.549C651.886 761.549 660.406 762.426 665.919 758.623L697.994 754.966L719.795 753.504L661.659 731.855Z" fill="#040C2B"/>
<path d="M758.009 742.167C758.009 742.167 766.425 755.706 761.444 761.087C760.673 761.921 761.748 762.931 763.371 762.928L797.225 762.865C797.225 762.865 816.52 766.376 820.279 751.602C820.279 751.602 822.535 735.951 797.977 733.318C773.42 730.685 797.727 732.44 797.727 732.44C797.727 732.44 769.16 734.488 758.009 742.167Z" fill="#040C2B"/>
<path d="M771.415 742.826L771.323 743.692L769.411 761.549L733.702 758.404L745.454 743.023L745.605 742.826C771.415 743.411 771.415 742.826 771.415 742.826Z" fill="#DE995F"/>
<path opacity="0.38" d="M771.416 742.826L771.323 743.692L752.496 744.216L745.455 743.024L745.605 742.826C771.416 743.411 771.416 742.826 771.416 742.826Z" fill="#050505"/>
<path d="M826.208 712.007L784.626 720.086L730.068 730.685L686.732 720.598L618.302 704.669C615.175 681.171 664.415 694.702 664.415 694.702L696.472 698.297H696.477L715.284 700.406L757.884 706.257L771.415 700.902L787.453 694.556C830.679 690.826 826.208 712.007 826.208 712.007Z" fill="#171105"/>
<path opacity="0.3" d="M784.627 720.086L730.069 730.685L686.733 720.598L674.94 713.571L696.473 698.297H696.478L715.285 700.407L757.884 706.258L771.416 700.902L784.627 720.086Z" fill="black"/>
<path d="M669.177 738.73L728.064 723.371C728.064 723.371 770.163 707.72 777.43 708.598C777.43 708.598 829.552 681.83 826.044 714.595C826.044 714.595 832.058 740.339 739.09 744.289L669.177 738.73Z" fill="#171105"/>
<path opacity="0.13" d="M709.646 728.125L716.162 726.224C721.092 729.51 730.359 732.244 736.459 735C743.362 738.118 751.745 740.998 759.764 742.899C754.501 743.533 749.239 744.167 743.977 744.801L709.646 728.125Z" fill="black"/>
<path d="M755.253 743.338C755.253 743.338 738.088 757.014 749.615 761.549C749.615 761.549 683 754.071 629.713 724.303C625.675 722.048 622.811 719.169 621.464 716.003C616.584 704.525 609.841 678.413 662.411 700.699C662.411 700.699 703.247 714.573 716.705 726.509C719.282 728.795 722.341 730.881 725.89 732.668C734.313 736.911 748.594 743.537 755.253 743.338Z" fill="#171105"/>
<path d="M714.533 591.523L745.605 591.579L755.629 610.448C755.629 610.448 736.083 639.995 708.018 613.666C709.265 609.425 713.41 603.206 714.658 598.966C716.663 594.578 716.412 594.87 714.533 591.523Z" fill="#CC8B5B"/>
<path d="M795.151 622.391L788.205 678.026L681.205 677.004C681.205 677.004 688.55 648.671 687.085 644.072C686.996 643.791 686.875 643.599 686.717 643.505L657.147 642.483C657.147 642.483 657.373 638.424 658.339 633.069C659.973 624.032 663.719 611.304 672.058 608.181C673.432 607.667 677.445 606.06 677.445 606.06C677.445 606.06 713.906 596.48 714.657 598.966C714.657 598.966 712.653 628.075 752.246 603.94C752.246 603.94 798.089 615.317 795.151 622.391Z" fill="white"/>
<path d="M773.42 680.806L775.612 699.241L800.314 691.745C805.914 690.046 809.751 686.84 810.441 683.177C811.056 679.919 810.666 675.278 807.75 668.811L802.237 644.383C802.237 644.383 804.869 627.489 792.089 617.981C792.089 617.981 787.453 645.992 779.183 650.673L777.429 674.077L773.42 680.806Z" fill="white"/>
<path opacity="0.1" d="M704.141 612.643L687.085 644.071C686.996 643.79 686.875 643.599 686.717 643.505L657.147 642.483C657.147 642.483 657.373 638.424 658.339 633.069L688.354 605.035C688.354 605.035 701.135 612.495 704.141 612.643Z" fill="black"/>
<path d="M709.695 593.953C708.964 598.843 708.097 600.344 705.511 608.108L701.502 615.714L690.226 608.108L693.233 605.036L691.729 591.14L695.535 581.831C696.887 578.523 700.244 576.412 703.798 576.795C707.781 577.223 711.673 580.723 709.695 593.953Z" fill="#DE995F"/>
<path opacity="0.13" d="M679.45 641.166L687.275 646.24L684.838 661.864L705.511 615.422L698.119 613.432L679.45 641.166Z" fill="black"/>
<path d="M689.725 605.036C689.725 605.036 702.505 612.496 705.512 612.642L681.456 656.963C681.456 656.963 665.992 676.117 650.115 661.712C640.336 652.839 643.487 641.013 657.79 634.561C657.991 634.471 658.195 634.38 658.402 634.291L689.725 605.036Z" fill="white"/>
<path opacity="0.13" d="M714.407 598.527C714.407 598.527 729.279 619.992 748.781 597.558L742.724 588.727L718.041 591.53L714.407 598.527Z" fill="black"/>
<path d="M708.018 561.154C708.018 561.154 736.584 545.503 748.111 559.253C748.111 559.253 771.917 583.388 734.83 605.036C734.83 605.036 710.774 615.714 708.018 561.154Z" fill="#DE995F"/>
<path d="M711.116 583.966L703.669 571.508C701.961 568.649 701.187 565.629 701.408 562.604C702.099 553.131 707.88 534.941 743.35 542.87C743.35 542.87 774.423 556.474 757.132 573.88L751.369 586.46C751.369 586.46 752.12 563.787 743.35 562.617C743.35 562.617 723.303 567.005 710.272 566.713C710.273 566.713 709.897 582.291 711.116 583.966Z" fill="black"/>
<path d="M718.04 581.34C721.777 581.34 724.806 579.572 724.806 577.391C724.806 575.21 721.777 573.441 718.04 573.441C714.304 573.441 711.274 575.21 711.274 577.391C711.274 579.572 714.304 581.34 718.04 581.34Z" stroke="black" stroke-width="2.0633" stroke-miterlimit="10"/>
<path d="M738.589 580.755C742.326 580.755 745.355 578.987 745.355 576.805C745.355 574.624 742.326 572.856 738.589 572.856C734.852 572.856 731.823 574.624 731.823 576.805C731.823 578.987 734.852 580.755 738.589 580.755Z" stroke="black" stroke-width="2.0633" stroke-miterlimit="10"/>
<path d="M724.732 576.805C724.732 576.805 727.814 578.853 731.823 576.805" stroke="black" stroke-width="2.0633" stroke-miterlimit="10"/>
<path d="M711.274 577.391L707.892 575.123" stroke="black" stroke-width="2.0633" stroke-miterlimit="10"/>
<path d="M745.354 576.805L753.874 575.782" stroke="black" stroke-width="2.0633" stroke-miterlimit="10"/>
<path opacity="0.13" d="M775.55 680.148C775.55 680.148 783.067 674.297 792.088 673.712C792.088 673.712 790.084 672.395 784.571 673.712C784.571 673.712 789.583 670.64 795.346 671.81C795.346 671.81 783.318 667.275 775.55 680.148Z" fill="black"/>
<path d="M676.133 662.049L776.55 660.799C777.999 660.781 779.184 661.951 779.184 663.401V705.166C779.184 706.591 778.037 707.751 776.611 707.767L678.199 708.863C676.8 708.878 675.639 707.784 675.571 706.386L673.567 664.776C673.496 663.304 674.659 662.068 676.133 662.049Z" fill="#FCB426"/>
<path opacity="0.13" d="M678.073 706.477C678.073 706.477 661.289 696.005 630.712 692.874C630.712 692.874 645.998 691.85 679.576 703.405L678.073 706.477Z" fill="black"/>
<path opacity="0.13" d="M779.309 707.793C779.309 707.793 809.645 692.266 821.729 700.578C821.729 700.578 815.394 691.411 775.551 706.915L779.309 707.793Z" fill="black"/>
<path opacity="0.13" d="M779.059 650.6C779.059 650.6 795.848 638.021 795.347 631.585C795.347 631.585 790.836 637.289 789.583 638.313C789.583 638.313 795.848 630.561 793.342 627.489C793.342 627.489 789.845 637.227 787.208 637.404L779.059 650.6Z" fill="black"/>
<path opacity="0.13" d="M778.934 650.527C778.934 650.527 791.463 625.953 788.957 624.637C788.957 624.637 788.456 629.464 778.934 650.527Z" fill="black"/>
</svg>
