<svg width="18" height="18" viewBox="0 0 18 18" fill="none" xmlns="http://www.w3.org/2000/svg">
<path d="M16.8689 0.0986328H1.21108C0.67476 0.0986328 0.23999 0.533403 0.23999 1.06972V16.7275C0.23999 17.2639 0.67476 17.6986 1.21108 17.6986H16.8689C17.4052 17.6986 17.84 17.2639 17.84 16.7275V1.06972C17.84 0.533403 17.4052 0.0986328 16.8689 0.0986328Z" fill="#3D5A98"/>
<path d="M10.1758 15.6737V9.37211H12.2905L12.6068 6.91636H10.1758V5.34887C10.1758 4.63799 10.3738 4.15262 11.3926 4.15262H12.6934V1.95261C12.0635 1.88709 11.4305 1.85588 10.7973 1.85911C8.92452 1.85911 7.63477 3.00036 7.63477 5.10549V6.91636H5.52002V9.37211H7.63477V15.6737H10.1758Z" fill="white"/>
</svg>
