<svg width="36" height="37" viewBox="0 0 36 37" fill="none" xmlns="http://www.w3.org/2000/svg">
<g clip-path="url(#clip0_19_2071)">
<g clip-path="url(#clip1_19_2071)">
<mask id="mask0_19_2071" style="mask-type:luminance" maskUnits="userSpaceOnUse" x="1" y="1" width="33" height="34">
<path d="M33.4005 15.3674H18.1739V21.6809H26.9385C26.1214 25.6918 22.7048 27.9943 18.1739 27.9943C12.8261 27.9943 8.51807 23.6863 8.51807 18.3385C8.51807 12.9906 12.8261 8.68263 18.1739 8.68263C20.4765 8.68263 22.5562 9.49966 24.1903 10.8366L28.9439 6.08297C26.0472 3.55759 22.3334 1.9978 18.1739 1.9978C9.11228 1.9978 1.83325 9.27683 1.83325 18.3385C1.83325 27.4001 9.11228 34.6792 18.1739 34.6792C26.3443 34.6792 33.7719 28.7371 33.7719 18.3385C33.7719 17.3729 33.6233 16.333 33.4005 15.3674Z" fill="white"/>
</mask>
<g mask="url(#mask0_19_2071)">
<path d="M0.347656 27.9946V8.68286L12.9745 18.3387L0.347656 27.9946Z" fill="#FBBC05"/>
</g>
<mask id="mask1_19_2071" style="mask-type:luminance" maskUnits="userSpaceOnUse" x="1" y="1" width="33" height="34">
<path d="M33.4005 15.3674H18.1739V21.6809H26.9385C26.1214 25.6918 22.7048 27.9943 18.1739 27.9943C12.8261 27.9943 8.51807 23.6863 8.51807 18.3385C8.51807 12.9906 12.8261 8.68263 18.1739 8.68263C20.4765 8.68263 22.5562 9.49966 24.1903 10.8366L28.9439 6.08297C26.0472 3.55759 22.3334 1.9978 18.1739 1.9978C9.11228 1.9978 1.83325 9.27683 1.83325 18.3385C1.83325 27.4001 9.11228 34.6792 18.1739 34.6792C26.3443 34.6792 33.7719 28.7371 33.7719 18.3385C33.7719 17.3729 33.6233 16.333 33.4005 15.3674Z" fill="white"/>
</mask>
<g mask="url(#mask1_19_2071)">
<path d="M0.347656 8.68255L12.9745 18.3384L18.1739 13.8076L36 10.9108V0.512207H0.347656V8.68255Z" fill="#EA4335"/>
</g>
<mask id="mask2_19_2071" style="mask-type:luminance" maskUnits="userSpaceOnUse" x="1" y="1" width="33" height="34">
<path d="M33.4005 15.3674H18.1739V21.6809H26.9385C26.1214 25.6918 22.7048 27.9943 18.1739 27.9943C12.8261 27.9943 8.51807 23.6863 8.51807 18.3385C8.51807 12.9906 12.8261 8.68263 18.1739 8.68263C20.4765 8.68263 22.5562 9.49966 24.1903 10.8366L28.9439 6.08297C26.0472 3.55759 22.3334 1.9978 18.1739 1.9978C9.11228 1.9978 1.83325 9.27683 1.83325 18.3385C1.83325 27.4001 9.11228 34.6792 18.1739 34.6792C26.3443 34.6792 33.7719 28.7371 33.7719 18.3385C33.7719 17.3729 33.6233 16.333 33.4005 15.3674Z" fill="white"/>
</mask>
<g mask="url(#mask2_19_2071)">
<path d="M0.347656 27.9943L22.6304 10.9108L28.4982 11.6536L36 0.512207V36.1646H0.347656V27.9943Z" fill="#34A853"/>
</g>
<mask id="mask3_19_2071" style="mask-type:luminance" maskUnits="userSpaceOnUse" x="1" y="1" width="33" height="34">
<path d="M33.4005 15.3674H18.1739V21.6809H26.9385C26.1214 25.6918 22.7048 27.9943 18.1739 27.9943C12.8261 27.9943 8.51807 23.6863 8.51807 18.3385C8.51807 12.9906 12.8261 8.68263 18.1739 8.68263C20.4765 8.68263 22.5562 9.49966 24.1903 10.8366L28.9439 6.08297C26.0472 3.55759 22.3334 1.9978 18.1739 1.9978C9.11228 1.9978 1.83325 9.27683 1.83325 18.3385C1.83325 27.4001 9.11228 34.6792 18.1739 34.6792C26.3443 34.6792 33.7719 28.7371 33.7719 18.3385C33.7719 17.3729 33.6233 16.333 33.4005 15.3674Z" fill="white"/>
</mask>
<g mask="url(#mask3_19_2071)">
<path d="M36.0002 36.1649L12.9747 18.3387L10.0037 16.1104L36.0002 8.68286V36.1649Z" fill="#4285F4"/>
</g>
</g>
</g>
<defs>
<clipPath id="clip0_19_2071">
<rect width="35.6524" height="35.6524" fill="white" transform="translate(0.347656 0.511719)"/>
</clipPath>
<clipPath id="clip1_19_2071">
<rect width="35.6524" height="35.6524" fill="white" transform="translate(0.347656 0.511719)"/>
</clipPath>
</defs>
</svg>
