<svg width="18" height="18" viewBox="0 0 18 18" fill="none" xmlns="http://www.w3.org/2000/svg">
<g clip-path="url(#clip0_1061_403)">
<path d="M13.8749 0.0986328H4.5249C2.24673 0.0986328 0.399902 1.94546 0.399902 4.22363V13.5736C0.399902 15.8518 2.24673 17.6986 4.5249 17.6986H13.8749C16.1531 17.6986 17.9999 15.8518 17.9999 13.5736V4.22363C17.9999 1.94546 16.1531 0.0986328 13.8749 0.0986328Z" fill="url(#paint0_radial_1061_403)"/>
<path d="M13.8749 0.0986328H4.5249C2.24673 0.0986328 0.399902 1.94546 0.399902 4.22363V13.5736C0.399902 15.8518 2.24673 17.6986 4.5249 17.6986H13.8749C16.1531 17.6986 17.9999 15.8518 17.9999 13.5736V4.22363C17.9999 1.94546 16.1531 0.0986328 13.8749 0.0986328Z" fill="url(#paint1_radial_1061_403)"/>
<path d="M9.20057 2.02368C7.33346 2.02368 7.09909 2.03186 6.3658 2.06521C5.63389 2.09876 5.13428 2.2146 4.69717 2.38462C4.24493 2.56021 3.86138 2.79513 3.47926 3.17738C3.09681 3.55956 2.86189 3.94311 2.68575 4.39514C2.51525 4.83239 2.39927 5.33221 2.36634 6.06378C2.33354 6.79713 2.32495 7.03157 2.32495 8.89875C2.32495 10.7659 2.3332 10.9995 2.36648 11.7328C2.40016 12.4647 2.51601 12.9644 2.68589 13.4015C2.86161 13.8537 3.09653 14.2373 3.47878 14.6194C3.86083 15.0018 4.24438 15.2373 4.69628 15.4129C5.13373 15.5829 5.63341 15.6987 6.36518 15.7323C7.09854 15.7656 7.3327 15.7738 9.19975 15.7738C11.0671 15.7738 11.3007 15.7656 12.034 15.7323C12.7659 15.6987 13.266 15.5829 13.7035 15.4129C14.1555 15.2373 14.5385 15.0018 14.9205 14.6194C15.303 14.2373 15.5378 13.8537 15.714 13.4017C15.883 12.9644 15.9991 12.4646 16.0334 11.733C16.0664 10.9997 16.075 10.7659 16.075 8.89875C16.075 7.03157 16.0664 6.79727 16.0334 6.06391C15.9991 5.332 15.883 4.83246 15.714 4.39535C15.5378 3.94311 15.303 3.55956 14.9205 3.17738C14.5381 2.79499 14.1557 2.56007 13.7031 2.38469C13.2648 2.2146 12.7649 2.09869 12.033 2.06521C11.2996 2.03186 11.0662 2.02368 9.19844 2.02368H9.20057ZM8.58381 3.26263C8.7669 3.26235 8.97115 3.26263 9.20057 3.26263C11.0363 3.26263 11.2538 3.26923 11.9787 3.30216C12.649 3.33282 13.0128 3.44481 13.2552 3.53893C13.576 3.66351 13.8048 3.81249 14.0452 4.05318C14.2859 4.29381 14.4348 4.52295 14.5597 4.84381C14.6538 5.08581 14.766 5.44963 14.7965 6.11994C14.8294 6.84471 14.8366 7.06237 14.8366 8.89717C14.8366 10.732 14.8294 10.9497 14.7965 11.6744C14.7658 12.3447 14.6538 12.7085 14.5597 12.9506C14.4351 13.2715 14.2859 13.4999 14.0452 13.7404C13.8046 13.981 13.5762 14.1299 13.2552 14.2546C13.0131 14.3491 12.649 14.4608 11.9787 14.4915C11.2539 14.5244 11.0363 14.5316 9.20057 14.5316C7.36481 14.5316 7.14721 14.5244 6.42252 14.4915C5.75221 14.4606 5.38838 14.3486 5.14583 14.2544C4.82504 14.1298 4.59583 13.9809 4.35521 13.7403C4.11458 13.4996 3.96567 13.271 3.84075 12.9501C3.74663 12.708 3.6345 12.3442 3.60398 11.6738C3.57104 10.9491 3.56444 10.7314 3.56444 8.89545C3.56444 7.05948 3.57104 6.84299 3.60398 6.11823C3.63464 5.44791 3.74663 5.08409 3.84075 4.84174C3.96539 4.52089 4.11458 4.29174 4.35528 4.05112C4.59597 3.81049 4.82504 3.66151 5.1459 3.53666C5.38824 3.44213 5.75221 3.33041 6.42252 3.29961C7.05674 3.27094 7.30252 3.26235 8.58381 3.26091V3.26263ZM12.8704 4.40415C12.415 4.40415 12.0454 4.77334 12.0454 5.22888C12.0454 5.68434 12.415 6.05388 12.8704 6.05388C13.3259 6.05388 13.6954 5.68434 13.6954 5.22888C13.6954 4.77341 13.3259 4.40388 12.8704 4.40388V4.40415ZM9.20057 5.36809C7.25082 5.36809 5.66998 6.94893 5.66998 8.89875C5.66998 10.8486 7.25082 12.4287 9.20057 12.4287C11.1504 12.4287 12.7307 10.8486 12.7307 8.89875C12.7307 6.949 11.1503 5.36809 9.20043 5.36809H9.20057ZM9.20057 6.60704C10.4662 6.60704 11.4923 7.63299 11.4923 8.89875C11.4923 10.1644 10.4662 11.1905 9.20057 11.1905C7.93495 11.1905 6.90893 10.1644 6.90893 8.89875C6.90893 7.63299 7.93488 6.60704 9.20057 6.60704Z" fill="white"/>
</g>
<defs>
<radialGradient id="paint0_radial_1061_403" cx="0" cy="0" r="1" gradientUnits="userSpaceOnUse" gradientTransform="translate(5.0749 19.0542) rotate(-90) scale(17.4429 16.2233)">
<stop stop-color="#FFDD55"/>
<stop offset="0.1" stop-color="#FFDD55"/>
<stop offset="0.5" stop-color="#FF543E"/>
<stop offset="1" stop-color="#C837AB"/>
</radialGradient>
<radialGradient id="paint1_radial_1061_403" cx="0" cy="0" r="1" gradientUnits="userSpaceOnUse" gradientTransform="translate(-2.54817 1.36645) rotate(78.681) scale(7.79708 32.1398)">
<stop stop-color="#3771C8"/>
<stop offset="0.128" stop-color="#3771C8"/>
<stop offset="1" stop-color="#6600FF" stop-opacity="0"/>
</radialGradient>
<clipPath id="clip0_1061_403">
<rect width="17.6" height="17.6" fill="white" transform="translate(0.399902 0.0986328)"/>
</clipPath>
</defs>
</svg>
