<svg width="18" height="18" viewBox="0 0 18 18" fill="none" xmlns="http://www.w3.org/2000/svg">
<path fill-rule="evenodd" clip-rule="evenodd" d="M1.83996 0.0986328H15.92C16.892 0.0986328 17.68 0.88655 17.68 1.85863V15.9386C17.68 16.9107 16.892 17.6986 15.92 17.6986H1.83996C0.867873 17.6986 0.0799561 16.9107 0.0799561 15.9386V1.85863C0.0799561 0.88655 0.867873 0.0986328 1.83996 0.0986328Z" fill="#010101"/>
<path fill-rule="evenodd" clip-rule="evenodd" d="M11.6036 7.12479C12.4295 7.71482 13.4413 8.06201 14.5339 8.06201V5.96036C14.3271 5.96044 14.1209 5.93887 13.9185 5.89599V7.55031C12.8259 7.55031 11.8143 7.20312 10.9883 6.61309V10.9019C10.9883 13.0474 9.24814 14.7865 7.10167 14.7865C6.30081 14.7865 5.55639 14.5445 4.93799 14.1295C5.64377 14.8507 6.628 15.2982 7.7169 15.2982C9.86352 15.2982 11.6037 13.5591 11.6037 11.4135L11.6036 7.12479ZM12.3628 5.0045C11.9407 4.54366 11.6636 3.94805 11.6036 3.28959V3.01929H11.0205C11.1673 3.85614 11.6679 4.57113 12.3628 5.0045ZM6.2956 12.4832C6.05982 12.1742 5.93237 11.7961 5.93293 11.4074C5.93293 10.4261 6.72889 9.63053 7.71086 9.63053C7.89384 9.6304 8.07575 9.65848 8.25018 9.71377V7.56518C8.04637 7.53727 7.84068 7.52543 7.63502 7.52979V9.20214C7.46052 9.14686 7.27853 9.11878 7.09548 9.11891C6.11351 9.11891 5.31763 9.91449 5.31763 10.8959C5.31763 11.5897 5.71546 12.1905 6.2956 12.4832Z" fill="#EE1D52"/>
<path fill-rule="evenodd" clip-rule="evenodd" d="M10.9884 6.61309C11.8144 7.20312 12.826 7.55031 13.9186 7.55031V5.89599C13.3088 5.7662 12.7688 5.44761 12.3629 5.0045C11.668 4.57113 11.1673 3.85614 11.0206 3.01929H9.4888V11.4134C9.48533 12.392 8.69073 13.1843 7.71088 13.1843C7.13345 13.1843 6.62047 12.9093 6.29562 12.4832C5.71548 12.1905 5.31765 11.5897 5.31765 10.8959C5.31765 9.91449 6.11353 9.11891 7.0955 9.11891C7.28362 9.11891 7.46495 9.14819 7.63504 9.20214V7.52979C5.5263 7.57333 3.83032 9.29549 3.83032 11.4135C3.83032 12.4708 4.25267 13.4293 4.93808 14.1296C5.55648 14.5446 6.3009 14.7866 7.10176 14.7866C9.24824 14.7866 10.9884 13.0474 10.9884 10.902V6.61309Z" fill="white"/>
<path fill-rule="evenodd" clip-rule="evenodd" d="M13.9186 5.8959V5.44857C13.3686 5.4494 12.8295 5.29545 12.3628 5.00433C12.7759 5.45632 13.3198 5.76802 13.9186 5.8959ZM11.0205 3.01919C11.0065 2.93922 10.9958 2.85871 10.9883 2.77787V2.50757H8.8733V10.9018C8.8699 11.8803 8.07538 12.6726 7.09545 12.6726C6.80772 12.6726 6.53613 12.6044 6.29556 12.4831C6.62042 12.9092 7.1334 13.1842 7.71083 13.1842C8.69061 13.1842 9.48528 12.3919 9.48875 11.4133V3.01919H11.0205ZM7.63506 7.52969V7.05346C7.45833 7.0293 7.28016 7.01722 7.10179 7.01731C4.95509 7.01731 3.21497 8.75653 3.21497 10.9018C3.21497 12.2468 3.89886 13.4321 4.93811 14.1294C4.2527 13.4291 3.83035 12.4706 3.83035 11.4133C3.83035 9.29539 5.52625 7.57323 7.63506 7.52969Z" fill="#69C9D0"/>
</svg>
