<svg width="19" height="18" viewBox="0 0 19 18" fill="none" xmlns="http://www.w3.org/2000/svg">
<rect x="3.23425" y="2.61279" width="12.5714" height="12.5714" fill="#D9D9D9"/>
<path d="M3.23426 0.0986328C1.84747 0.0986328 0.719971 1.22613 0.719971 2.61292V15.1843C0.719971 16.5711 1.84747 17.6986 3.23426 17.6986H15.8057C17.1925 17.6986 18.32 16.5711 18.32 15.1843V2.61292C18.32 1.22613 17.1925 0.0986328 15.8057 0.0986328H3.23426ZM14.906 3.39863L10.8282 8.05792L15.625 14.3986H11.8693L8.93069 10.5526L5.5639 14.3986H3.69783L8.05854 9.41328L3.45818 3.39863H7.30819L9.96783 6.9147L13.04 3.39863H14.906ZM13.421 13.2829L6.7464 4.45542H5.63461L12.3839 13.2829H13.421Z" fill="black"/>
</svg>
