<svg width="19" height="18" viewBox="0 0 19 18" fill="none" xmlns="http://www.w3.org/2000/svg">
<path fill-rule="evenodd" clip-rule="evenodd" d="M2.31994 0.0986328H16.3999C17.372 0.0986328 18.1599 0.88655 18.1599 1.85863V15.9386C18.1599 16.9107 17.372 17.6986 16.3999 17.6986H2.31994C1.34785 17.6986 0.559937 16.9107 0.559937 15.9386V1.85863C0.559937 0.88655 1.34785 0.0986328 2.31994 0.0986328Z" fill="white"/>
<path d="M15.2675 5.87681C15.2019 5.61046 15.0739 5.36763 14.8962 5.17252C14.7186 4.9774 14.4975 4.8368 14.255 4.76472C13.3673 4.49878 9.79425 4.49878 9.79425 4.49878C9.79425 4.49878 6.22107 4.50683 5.33329 4.77277C5.09079 4.84485 4.86971 4.98546 4.69208 5.18059C4.51444 5.37571 4.38645 5.61855 4.32083 5.88491C4.0523 7.61747 3.94813 10.2575 4.32821 11.9208C4.39383 12.1871 4.52183 12.4299 4.69946 12.625C4.8771 12.8202 5.09817 12.9608 5.34066 13.0328C6.22844 13.2988 9.80154 13.2988 9.80154 13.2988C9.80154 13.2988 13.3746 13.2988 14.2623 13.0328C14.5048 12.9608 14.7259 12.8202 14.9035 12.6251C15.0812 12.4299 15.2092 12.1871 15.2748 11.9208C15.5581 10.1857 15.6453 7.54733 15.2675 5.87681Z" fill="#FF0000"/>
<path d="M8.47998 10.6587L12 8.89867L8.47998 7.13867V10.6587Z" fill="white"/>
</svg>
